<?xml version="1.0" encoding="UTF-8" standalone="no"?><!DOCTYPE svg PUBLIC "-//W3C//DTD SVG 1.1//EN" "http://www.w3.org/Graphics/SVG/1.1/DTD/svg11.dtd"><svg width="100%" height="100%" viewBox="0 0 300 219" version="1.1" xmlns="http://www.w3.org/2000/svg" xmlns:xlink="http://www.w3.org/1999/xlink" xml:space="preserve" xmlns:serif="http://www.serif.com/" style="fill-rule:evenodd;clip-rule:evenodd;stroke-linejoin:round;stroke-miterlimit:2;"><path d="M241.074,72.056c1.068,0.934 2.401,1.268 4,1l0,104c-4.481,1.938 -9.148,3.271 -14,4c0.284,-3.277 -0.049,-6.443 -1,-9.5c-5.64,-0.905 -11.14,-0.405 -16.5,1.5c-0.765,-0.07 -1.265,-0.403 -1.5,-1c9.139,-23.89 1.472,-39.723 -23,-47.5c-7.217,-1.62 -13.551,-0.12 -19,4.5c-4.725,2.392 -8.058,6.059 -10,11c-7.039,19.107 -1.372,33.274 17,42.5c10.997,2.966 20.997,1.132 30,-5.5c1.914,3.184 2.58,6.851 2,11c6.3,-1.492 12.634,-2.825 19,-4c5.569,-0.392 10.903,-1.726 16,-4c1.327,6.601 1.993,13.267 2,20c-4.255,1.863 -8.588,3.53 -13,5c-15.778,3.611 -31.778,5.778 -48,6.5c-23.012,0.733 -46.012,0.566 -69,-0.5c-5.689,-0.032 -11.355,-0.366 -17,-1c1.13,-7.254 1.296,-14.587 0.5,-22c-1.011,-0.837 -2.178,-1.17 -3.5,-1c-0.31,-3.213 0.023,-6.213 1,-9c13.476,8.375 26.309,7.375 38.5,-3c5.519,-7.34 7.352,-15.34 5.5,-24c0.134,-1.792 -0.199,-3.458 -1,-5c-7.241,-15.709 -19.574,-22.876 -37,-21.5c-1.566,0.608 -2.9,1.442 -4,2.5c-8.8,3.802 -13.8,10.469 -15,20c-2.043,10.539 0.957,19.539 9,27c-6.278,-1.324 -12.612,-2.324 -19,-3l0,10c-4.595,-0.532 -8.929,-1.865 -13,-4c-0.65,-35.222 0.017,-70.222 2,-105c30.92,-17.753 64.253,-25.253 100,-22.5c27.673,1.916 53.673,9.416 78,22.5Z" style="fill:#fdfdfd;"/><path d="M265.074,166.056c-0.166,6.342 0,12.675 0.5,19c0.383,0.556 0.883,0.889 1.5,1c-6.447,5.398 -13.447,10.064 -21,14c-0.007,-6.733 -0.673,-13.399 -2,-20c-5.097,2.274 -10.431,3.608 -16,4c13.116,-2.725 24.783,-8.392 35,-17c0.667,-0.333 1.333,-0.667 2,-1Z" style="fill:#c8c6bc;"/><path d="M58.074,178.056c5.156,2.245 10.489,3.912 16,5c1.333,0.667 2.667,1.333 4,2c-1.238,0.31 -1.238,0.81 0,1.5c3.502,0.174 5.335,2.007 5.5,5.5c0.167,2.333 0.333,4.667 0.5,7c-0.074,2.787 -0.74,5.287 -2,7.5c5.41,2.382 11.076,3.549 17,3.5c5.645,0.634 11.311,0.968 17,1c2.131,0.814 4.464,1.314 7,1.5c-9.513,0.673 -19.013,0.507 -28.5,-0.5c-1.833,0.167 -3.667,0.333 -5.5,0.5c1.237,0.232 2.237,0.732 3,1.5l-4,0c-5.513,-1.834 -11.18,-3.501 -17,-5c0.638,-1.96 0.638,-3.793 0,-5.5c-5.619,-1.476 -10.619,-3.976 -15,-7.5c0.617,-0.111 1.117,-0.444 1.5,-1c0.327,-5.839 0.494,-11.506 0.5,-17Z" style="fill:#c2bdb4;"/><path d="M78.074,185.056c5.637,1.106 11.304,2.106 17,3c0.667,0 1,-0.333 1,-1c1.322,-0.17 2.489,0.163 3.5,1c0.796,7.413 0.63,14.746 -0.5,22c-5.924,0.049 -11.59,-1.118 -17,-3.5c1.26,-2.213 1.926,-4.713 2,-7.5c-0.167,-2.333 -0.333,-4.667 -0.5,-7c-0.165,-3.493 -1.998,-5.326 -5.5,-5.5c-1.238,-0.69 -1.238,-1.19 0,-1.5Z" style="fill:#e7e8e0;"/><path d="M168.074,0.056c7.871,0.367 15.537,1.701 23,4c7.848,3.602 11.258,4.315 18,6c1,0.667 2,1.334 3,2c3.22,1.492 6.554,2.992 10,4.5c7.18,5.091 14.18,10.424 21,16c9.569,10.48 18.902,21.146 28,32c6.333,0.333 12.667,0.667 19,1c3.8,1.642 6.8,4.142 9,7.5c0.291,11.717 -0.042,23.384 -1,35c-2.119,1.9 -4.453,3.566 -7,5l-21,0c-0.329,13.51 0.004,26.844 1,40c2.409,2.402 4.409,5.069 6,8c0.278,9.053 -2.591,20.585 -3.535,29.532c-0.353,0.296 -15.837,13.602 -10.465,1.468c1.35,-1.45 3.016,-2.117 5,-2c0.543,-2.538 1.543,-4.872 3,-7l0,-20c-2.447,0.115 -4.447,1.115 -6,3c-0.667,0.333 -1.333,0.667 -2,1l-1,0c1.159,-33.929 1.326,-67.929 0.5,-102c-1.438,-2.33 -3.467,-2 -5.5,-2c0.237,-1.291 -0.096,-2.291 -1,-3c-1,-0.333 -1.667,-1 -2,-2c-0.255,-2.467 -1.255,-4.467 -3,-6c-22.437,-28.054 -51.77,-43.221 -88,-45.5c-36.753,-2.583 -68.753,8.25 -96,32.5c-5.274,3.605 -9.941,7.938 -14,13c-0.438,-0.065 -0.772,0.101 -1,0.5c0.916,0.278 1.582,0.778 2,1.5c-2.358,2.029 -4.692,4.029 -7,6c-0.667,0.667 -1.333,1.333 -2,2c-2.403,-0.107 -4.236,0.893 -5.5,3c-0.5,28.331 -0.667,56.665 -0.5,85l0,6c-0.814,2.131 -1.314,4.464 -1.5,7c-0.977,-1.274 -1.811,-1.274 -2.5,0c-1.318,2.758 -1.985,5.924 -2,9.5c0.167,3.167 0.333,6.333 0.5,9.5c4.798,3.978 9.965,7.311 15.5,10c1.836,2.088 4.169,3.421 7,4c4.381,3.524 9.381,6.024 15,7.5c0.638,1.707 5.52,0.04 4.882,2c5.82,1.499 87.218,21.276 184.445,-12.112c4.674,3.456 -2.206,6.329 -3.288,6.831c-3.953,1.833 -8.058,3.381 -12.258,4.542c-9.364,2.588 -18.848,4.748 -28.367,6.687c-30.936,6.3 -63.392,8.904 -94.9,6.309c-10.761,-0.886 -21.487,-2.211 -32.17,-3.774c-7.456,-1.091 -14.828,-2.701 -22.216,-4.183c-1.577,-0.317 -3.165,-0.646 -4.671,-1.211c-0.567,-0.213 -2.057,-0.999 -1.457,-1.089c-11.926,-5.443 -22.926,-12.276 -33,-20.5c-1.301,-1.382 -2.134,-3.048 -2.5,-5c-0.667,-7.333 -0.667,-14.667 0,-22c0.383,-0.556 0.883,-0.889 1.5,-1c2.414,-1.411 4.081,-3.411 5,-6l0,-40l-24,0c-2.254,-0.915 -4.254,-2.248 -6,-4c0.039,-1.256 -0.461,-2.256 -1.5,-3c-0.5,-9.994 -0.666,-19.994 -0.5,-30c-0.237,-1.291 0.096,-2.291 1,-3c2.984,-3.482 6.651,-5.982 11,-7.5c7,-0.333 14,-0.667 21,-1c0.752,-0.671 1.086,-1.504 1,-2.5c5.333,-4.667 10.333,-9.667 15,-15c7.645,-6.469 13.782,-14.69 21.857,-20.615c16.094,-11.811 36.813,-22.358 56.744,-25.018c11.514,-1.536 29.832,-1.494 40.399,-1.367Z" style="fill:#090812;"/><path d="M140.074,186.056l28,0c0.214,1.644 -0.12,3.144 -1,4.5c-8.667,2 -17.333,2 -26,0c-2.282,-1.084 -2.616,-2.584 -1,-4.5Z" style="fill:#202026;"/><path d="M93.074,174.056l0,1c0.667,0.667 1.333,1.333 2,2l0,11c-5.696,-0.894 -11.363,-1.894 -17,-3c-1.333,-0.667 -2.667,-1.333 -4,-2c1.333,-2.667 1.333,-5.333 0,-8l0,-4c6.388,0.676 12.722,1.676 19,3Z" style="fill:#1b3248;"/><path d="M95.074,177.056c0.992,-0.172 1.658,0.162 2,1c-0.977,2.787 -1.31,5.787 -1,9c0,0.667 -0.333,1 -1,1l0,-11Z" style="fill:#838a9a;"/><path d="M222.074,183.056c-2.348,0.17 -4.682,0.503 -7,1c-1.614,-0.303 -2.948,-0.97 -4,-2l0,-6c0.342,-0.838 1.008,-1.172 2,-1c5.159,-1.683 10.492,-2.349 16,-2l0,9c-2.403,-0.052 -4.736,0.281 -7,1Z" style="fill:#1dcef3;"/><path d="M93.074,175.056l0,10c-5.653,-0.775 -11.32,-1.442 -17,-2c-0.32,-3.398 0.013,-6.732 1,-10c5.275,1.031 10.608,1.697 16,2Z" style="fill:#13e0f9;"/><path d="M212.074,172.056c-0.543,0.06 -0.876,0.393 -1,1c0.743,0.682 1.409,1.349 2,2c-0.992,-0.172 -1.658,0.162 -2,1c-1.599,-0.268 -2.932,0.066 -4,1c-9.003,6.632 -19.003,8.466 -30,5.5c-18.372,-9.226 -24.039,-23.393 -17,-42.5c-0.858,6.316 -1.024,12.65 -0.5,19c1.271,4.236 2.937,8.236 5,12c0.671,0.752 1.504,1.086 2.5,1l1,0c2.339,4.35 6.006,7.017 11,8c5.732,2.297 10.399,0.964 14,-4c0.79,-0.901 1.79,-1.568 3,-2c1.052,-0.149 2.052,0.017 3,0.5c0.612,1.303 0.946,2.47 1,3.5c4.213,-1.71 7.713,-4.377 10.5,-8c1.052,-4.944 2.219,-9.777 3.5,-14.5c0.255,-3.408 -0.745,-6.241 -3,-8.5c-1.772,-4.703 -4.439,-8.87 -8,-12.5c-1.782,-0.122 -3.448,0.378 -5,1.5c1.717,-2.816 1.051,-4.983 -2,-6.5c-2.347,-0.436 -4.681,-0.936 -7,-1.5c-6.356,0.409 -12.689,0.743 -19,1c5.449,-4.62 11.783,-6.12 19,-4.5c24.472,7.777 32.139,23.61 23,47.5Z" style="fill:#0d0d22;"/><path d="M193.074,176.056c-3.601,4.964 -8.268,6.297 -14,4c5.269,0.462 9.936,-0.871 14,-4Z" style="fill:#0c0944;"/><path d="M260.074,167.056l3,0c-10.217,8.608 -21.884,14.275 -35,17c-6.366,1.175 -12.7,2.508 -19,4c0.58,-4.149 -0.086,-7.816 -2,-11c1.068,-0.934 2.401,-1.268 4,-1l0,6c-0.934,1.068 -1.268,2.401 -1,4c4.3,-0.255 8.3,-1.255 12,-3c2.264,-0.719 4.597,-1.052 7,-1l0,-9c-5.508,-0.349 -10.841,0.317 -16,2c-0.591,-0.651 -1.257,-1.318 -2,-2c0.124,-0.607 0.457,-0.94 1,-1c0.235,0.597 0.735,0.93 1.5,1c5.36,-1.905 10.86,-2.405 16.5,-1.5c0.951,3.057 1.284,6.223 1,9.5c4.852,-0.729 9.519,-2.062 14,-4c0.667,0 1,-0.333 1,-1c4.872,-1.929 9.205,-4.595 13,-8c0.667,0 1,-0.333 1,-1Z" style="fill:#333941;"/><path d="M211.074,182.056c1.052,1.03 2.386,1.697 4,2c2.318,-0.497 4.652,-0.83 7,-1c-3.7,1.745 -7.7,2.745 -12,3c-0.268,-1.599 0.066,-2.932 1,-4Z" style="fill:#286996;"/><path d="M168.074,172.056c1.422,0.209 2.755,0.709 4,1.5c2.481,2.199 4.814,4.366 7,6.5c-4.994,-0.983 -8.661,-3.65 -11,-8Z" style="fill:#251875;"/><path d="M84.074,147.056c-0.165,3.35 0.002,6.683 0.5,10c1.665,2.306 3.331,4.639 5,7c0.667,-1.333 1.333,-1.333 2,0c0.333,2.333 0.667,4.667 1,7c1.129,1.641 2.629,2.641 4.5,3c4.868,5.804 10.868,7.47 18,5c3.678,-1.446 7.011,-3.446 10,-6c1.953,0.524 3.62,1.524 5,3c4.532,-2.796 7.366,-6.796 8.5,-12c1.05,-4.303 1.884,-8.637 2.5,-13c1.852,8.66 0.019,16.66 -5.5,24c-12.191,10.375 -25.024,11.375 -38.5,3c-0.342,-0.838 -1.008,-1.172 -2,-1c-0.667,-0.667 -1.333,-1.333 -2,-2l0,-1c-8.043,-7.461 -11.043,-16.461 -9,-27Z" style="fill:#121428;"/><path d="M39.074,156.056c-0.165,3.018 0.002,6.018 0.5,9c3.311,2.403 6.811,4.403 10.5,6c3.183,2.76 6.849,4.76 11,6c4.071,2.135 8.405,3.468 13,4l0,-6c1.333,2.667 1.333,5.333 0,8c-5.511,-1.088 -10.844,-2.755 -16,-5c-1.681,-1.508 -3.681,-2.508 -6,-3c-6.193,-3.262 -11.86,-7.262 -17,-12c0.689,-1.274 1.523,-1.274 2.5,0c0.186,-2.536 0.686,-4.869 1.5,-7Z" style="fill:#2a292b;"/><path d="M35.074,163.056c5.14,4.738 10.807,8.738 17,12c-0.243,6.05 -1.243,11.716 -3,17c-5.535,-2.689 -10.702,-6.022 -15.5,-10c-0.167,-3.167 -0.333,-6.333 -0.5,-9.5c0.015,-3.576 0.682,-6.742 2,-9.5Z" style="fill:#f9fafa;"/><path d="M271.074,183.056c-1.333,1 -2.667,2 -4,3c-0.617,-0.111 -1.117,-0.444 -1.5,-1c-0.5,-6.325 -0.666,-12.658 -0.5,-19c1.553,-1.885 3.553,-2.885 6,-3l0,20Z" style="fill:#f0f0ee;"/><path d="M122.074,173.056c-2.358,2.029 -4.692,4.029 -7,6c-2.424,0.308 -4.757,-0.026 -7,-1c-3.107,-2.253 -6.44,-4.087 -10,-5.5c1.333,-0.667 2.667,-1.333 4,-2c-4,-2 -4,-4 0,-6c-1,-0.333 -2,-0.667 -3,-1c4.542,-4.639 9.376,-8.139 14.5,-10.5c0.949,3.878 2.115,3.878 3.5,0c3.67,1.549 4.67,4.049 3,7.5c3.128,3.727 3.795,7.894 2,12.5Z" style="fill:#3824a2;"/><path d="M121.074,140.056c1.667,3.333 3.333,6.667 5,10c2.408,5.294 2.408,10.627 0,16c0.166,-4.346 -0.001,-8.679 -0.5,-13c-1.443,-2.925 -2.609,-5.925 -3.5,-9c-1.373,-0.157 -2.707,0.01 -4,0.5c-1.537,1.707 -3.204,3.207 -5,4.5c1.982,-3.646 4.649,-6.646 8,-9Z" style="fill:#2c1972;"/><path d="M211.074,147.056c2.255,2.259 3.255,5.092 3,8.5c-1.281,4.723 -2.448,9.556 -3.5,14.5c-2.787,3.623 -6.287,6.29 -10.5,8c-0.054,-1.03 -0.388,-2.197 -1,-3.5c-0.948,-0.483 -1.948,-0.649 -3,-0.5c2.771,-7.701 4.438,-15.701 5,-24c3.311,-1.365 6.644,-2.365 10,-3Z" style="fill:#04012c;"/><path d="M195.074,140.056c1.822,3.505 3.822,6.838 6,10c-0.562,8.299 -2.229,16.299 -5,24c-1.21,0.432 -2.21,1.099 -3,2c-4.064,3.129 -8.731,4.462 -14,4c-2.186,-2.134 -4.519,-4.301 -7,-6.5c-1.245,-0.791 -2.578,-1.291 -4,-1.5l-1,0c-1.748,-1.66 -2.248,-3.66 -1.5,-6c9.641,-7.474 18.474,-15.808 26.5,-25c0.825,-0.886 1.825,-1.219 3,-1Z" style="fill:#38209f;"/><path d="M140.074,146.056c0.801,1.542 1.134,3.208 1,5c-0.616,4.363 -1.45,8.697 -2.5,13c-1.134,5.204 -3.968,9.204 -8.5,12c-1.38,-1.476 -3.047,-2.476 -5,-3c-2.989,2.554 -6.322,4.554 -10,6c2.308,-1.971 4.642,-3.971 7,-6c2.442,-1.621 3.775,-3.954 4,-7c2.408,-5.373 2.408,-10.706 0,-16c2.306,-0.493 4.639,-0.826 7,-1c2.695,-0.181 5.028,-1.181 7,-3Z" style="fill:#05022c;"/><path d="M126.074,166.056c-0.225,3.046 -1.558,5.379 -4,7c1.795,-4.606 1.128,-8.773 -2,-12.5c1.67,-3.451 0.67,-5.951 -3,-7.5c-1.385,3.878 -2.551,3.878 -3.5,0c-5.124,2.361 -9.958,5.861 -14.5,10.5c1,0.333 2,0.667 3,1c-4,2 -4,4 0,6c-1.333,0.667 -2.667,1.333 -4,2c3.56,1.413 6.893,3.247 10,5.5c2.243,0.974 4.576,1.308 7,1c-7.132,2.47 -13.132,0.804 -18,-5c-1.516,-1.686 -2.85,-3.519 -4,-5.5c0.362,-1.225 0.862,-2.391 1.5,-3.5c6.68,-4.854 12.846,-10.187 18.5,-16c1.796,-1.293 3.463,-2.793 5,-4.5c1.293,-0.49 2.627,-0.657 4,-0.5c0.891,3.075 2.057,6.075 3.5,9c0.499,4.321 0.666,8.654 0.5,13Z" style="fill:#341e91;"/><path d="M133.074,149.056c-2.361,0.174 -4.694,0.507 -7,1c-1.667,-3.333 -3.333,-6.667 -5,-10l0,-1c1.796,-1.293 3.463,-2.793 5,-4.5c0.667,-0.667 1.333,-0.667 2,0c4.159,3.649 6.826,8.149 8,13.5c-1.291,-0.237 -2.291,0.096 -3,1Z" style="fill:#f3f1f6;"/><path d="M211.074,147.056c-3.356,0.635 -6.689,1.635 -10,3c-2.178,-3.162 -4.178,-6.495 -6,-10c1,-1.333 2,-2.667 3,-4c1.552,-1.122 3.218,-1.622 5,-1.5c3.561,3.63 6.228,7.797 8,12.5Z" style="fill:#efeef4;"/><path d="M198.074,136.056c-1,1.333 -2,2.667 -3,4c-1.175,-0.219 -2.175,0.114 -3,1c-8.026,9.192 -16.859,17.526 -26.5,25c-0.748,2.34 -0.248,4.34 1.5,6c-0.996,0.086 -1.829,-0.248 -2.5,-1c-2.063,-3.764 -3.729,-7.764 -5,-12c-0.524,-6.35 -0.358,-12.684 0.5,-19c1.942,-4.941 5.275,-8.608 10,-11c6.311,-0.257 12.644,-0.591 19,-1c2.319,0.564 4.653,1.064 7,1.5c3.051,1.517 3.717,3.684 2,6.5Z" style="fill:#04012a;"/><path d="M99.074,127.056c7.285,0.953 14.952,1.953 23,3c0.333,0.667 0.667,1.333 1,2c-1.394,2.146 -2.06,4.479 -2,7l0,1c-3.351,2.354 -6.018,5.354 -8,9c-5.654,5.813 -11.82,11.146 -18.5,16c-0.638,1.109 -1.138,2.275 -1.5,3.5c1.15,1.981 2.484,3.814 4,5.5c-1.871,-0.359 -3.371,-1.359 -4.5,-3c-0.333,-2.333 -0.667,-4.667 -1,-7c-0.667,-1.333 -1.333,-1.333 -2,0c-1.669,-2.361 -3.335,-4.694 -5,-7c-0.498,-3.317 -0.665,-6.65 -0.5,-10c1.2,-9.531 6.2,-16.198 15,-20Z" style="fill:#04012a;"/><path d="M140.074,146.056c-1.972,1.819 -4.305,2.819 -7,3c0.709,-0.904 1.709,-1.237 3,-1c-1.174,-5.351 -3.841,-9.851 -8,-13.5c-0.667,-0.667 -1.333,-0.667 -2,0c-1.537,1.707 -3.204,3.207 -5,4.5c-0.06,-2.521 0.606,-4.854 2,-7c-0.333,-0.667 -0.667,-1.333 -1,-2c-8.048,-1.047 -15.715,-2.047 -23,-3c1.1,-1.058 2.434,-1.892 4,-2.5c17.426,-1.376 29.759,5.791 37,21.5Z" style="fill:#101028;"/><path d="M259.074,168.056c-3.795,3.405 -8.128,6.071 -13,8c-0.333,-34.673 0,-69.34 1,-104c0.915,0.828 1.581,1.828 2,3c-1.075,2.938 -1.241,5.938 -0.5,9c2.622,-14.619 5.288,-14.619 8,0c0.425,7.37 0.591,14.537 0.5,21.5c-1.117,5.402 -1.784,10.735 -2,16c1.006,15.622 2.34,31.122 4,46.5Z" style="fill:#d3cec4;"/><path d="M7.074,78.056l1,0l0,21l23,0l0,-21l1,0l0,27c-7.674,0.166 -15.341,0 -23,-0.5c-0.5,-0.5 -1,-1 -1.5,-1.5c-0.5,-8.327 -0.666,-16.66 -0.5,-25Z" style="fill:#c8cac7;"/><path d="M292.074,76.056c1.157,8.824 1.324,17.824 0.5,27c-7.413,0.981 -14.913,1.314 -22.5,1l0,-6c7.246,0.964 14.58,1.297 22,1l0,-23Z" style="fill:#cdcec9;"/><path d="M257.074,63.056l2,0c-0.332,34.837 0.002,69.504 1,104c0,0.667 -0.333,1 -1,1c-1.66,-15.378 -2.994,-30.878 -4,-46.5c0.216,-5.265 0.883,-10.598 2,-16c0.091,-6.963 -0.075,-14.13 -0.5,-21.5c-2.712,-14.619 -5.378,-14.619 -8,0c-0.741,-3.062 -0.575,-6.062 0.5,-9c-0.419,-1.172 -1.085,-2.172 -2,-3c-1,34.66 -1.333,69.327 -1,104c0,0.667 -0.333,1 -1,1l0,-104c-1.599,0.268 -2.932,-0.066 -4,-1c5.823,-2.163 11.157,-5.163 16,-9Z" style="fill:#ddd9d1;"/><path d="M292.074,76.056l0,23c-7.42,0.297 -14.754,-0.036 -22,-1l0,-20c6.675,0.166 13.342,0 20,-0.5c0.544,-0.717 1.211,-1.217 2,-1.5Z" style="fill:#fdfdfc;"/><rect x="8.074" y="78.056" width="23" height="21" style="fill:#fefefe;"/><path d="M32.074,78.056l-25,0c0.238,-2.648 1.572,-4.482 4,-5.5c6.992,-0.5 13.992,-0.666 21,-0.5l0,6Z" style="fill:#b2afa2;"/><path d="M52.074,67.056c3.285,2.475 6.952,4.142 11,5c-1.983,34.778 -2.65,69.778 -2,105c-4.151,-1.24 -7.817,-3.24 -11,-6c0.68,-34.539 1.346,-69.206 2,-104Z" style="fill:#dbd5cf;"/><path d="M292.074,76.056c-0.789,0.283 -1.456,0.783 -2,1.5c-6.658,0.5 -13.325,0.666 -20,0.5l0,-6c6.342,-0.166 12.675,0 19,0.5c1.21,1.039 2.21,2.206 3,3.5Z" style="fill:#aeaca5;"/><path d="M45.074,62.056l0,1c-1.591,0.719 -3.091,1.719 -4.5,3c-0.168,28.17 -0.668,56.17 -1.5,84c-0.167,-28.335 0,-56.669 0.5,-85c1.264,-2.107 3.097,-3.107 5.5,-3Z" style="fill:#d5d6d5;"/><path d="M45.074,63.056c2.469,1.069 4.802,2.402 7,4c-0.654,34.794 -1.32,69.461 -2,104c-3.689,-1.597 -7.189,-3.597 -10.5,-6c-0.498,-2.982 -0.665,-5.982 -0.5,-9l0,-6c0.832,-27.83 1.332,-55.83 1.5,-84c1.409,-1.281 2.909,-2.281 4.5,-3Z" style="fill:#fcfdfc;"/><path d="M259.074,63.056c1.517,0.011 2.684,0.677 3.5,2c0.826,34.071 0.659,68.071 -0.5,102l-2,0c-0.998,-34.496 -1.332,-69.163 -1,-104Z" style="fill:#f9faf8;"/><path d="M63.074,48.056c-1.185,1.357 -2.185,2.857 -3,4.5c0.235,0.873 0.569,1.707 1,2.5c-1.747,4.007 -2.581,8.007 -2.5,12c-1.401,-1.692 -3.234,-2.359 -5.5,-2c-2.894,-0.756 -4.894,-2.423 -6,-5c2.308,-1.971 4.642,-3.971 7,-6c2.857,-2.258 5.857,-4.258 9,-6Z" style="fill:#e7e8df;"/><path d="M67.074,39.056c-1.214,1.649 -2.547,3.316 -4,5c1.2,0.792 2.533,0.792 4,0c-1.158,1.45 -0.658,2.45 1.5,3c1.566,-0.56 2.899,0.106 4,2c1.036,3.253 1.703,6.586 2,10c0.333,-1.333 0.667,-2.667 1,-4c0.273,1.601 0.773,3.101 1.5,4.5c-1.383,1.461 -1.049,2.294 1,2.5c-5.053,3.01 -10.386,5.676 -16,8c-3.271,-1.292 -6.271,-2.958 -9,-5c2.266,-0.359 4.099,0.308 5.5,2c-0.081,-3.993 0.753,-7.993 2.5,-12c-0.431,-0.793 -0.765,-1.627 -1,-2.5c0.815,-1.643 1.815,-3.143 3,-4.5c0.963,-0.863 0.963,-1.53 0,-2c-3.106,2.453 -6.439,4.452 -10,6c4.059,-5.062 8.726,-9.395 14,-13Z" style="fill:#d3d1ca;"/><path d="M63.074,48.056c-3.143,1.742 -6.143,3.742 -9,6c-0.418,-0.722 -1.084,-1.222 -2,-1.5c0.228,-0.399 0.562,-0.565 1,-0.5c3.561,-1.548 6.894,-3.547 10,-6c0.963,0.47 0.963,1.137 0,2Z" style="fill:#4b4c51;"/><path d="M165.074,48.056l0,-1c11.501,-0.466 22.834,0.7 34,3.5c3.191,1.483 6.191,2.983 9,4.5c-14.052,-3.953 -28.385,-6.286 -43,-7Z" style="fill:#20b9db;"/><path d="M165.074,48.056c14.615,0.714 28.948,3.047 43,7c11.756,4.311 23.256,9.311 34.5,15c4.091,-2.629 8.257,-5.129 12.5,-7.5c0.752,-0.671 1.086,-1.504 1,-2.5c0.904,0.709 1.237,1.709 1,3c-4.843,3.837 -10.177,6.837 -16,9c-24.327,-13.084 -50.327,-20.584 -78,-22.5c-35.747,-2.753 -69.08,4.747 -100,22.5c-4.048,-0.858 -7.715,-2.525 -11,-5c-2.198,-1.598 -4.531,-2.931 -7,-4l0,-1c0.667,-0.667 1.333,-1.333 2,-2c1.106,2.577 3.106,4.244 6,5c2.729,2.042 5.729,3.708 9,5c5.614,-2.324 10.947,-4.99 16,-8c6.41,-2.686 12.743,-5.353 19,-8l3,0c3.61,-1.203 7.277,-2.203 11,-3c4.254,-1.146 8.587,-1.813 13,-2c13.649,-0.837 27.316,-1.171 41,-1Z" style="fill:#181e26;"/><path d="M165.074,47.056l0,1c-13.684,-0.171 -27.351,0.163 -41,1c1.419,-0.951 3.085,-1.284 5,-1c11.95,-0.959 23.95,-1.292 36,-1Z" style="fill:#043f58;"/><path d="M123.074,26.056c-1.098,0.897 -1.098,1.731 0,2.5c-5.394,5.058 -10.394,10.392 -15,16c1.172,0.354 2.338,0.187 3.5,-0.5c3.309,0.979 3.309,1.979 0,3c-0.654,-1.195 -1.154,-1.195 -1.5,0c1.578,0.798 3.244,1.298 5,1.5c-1.937,0.122 -3.27,0.955 -4,2.5c-3.723,0.797 -7.39,1.797 -11,3c1.602,-3.595 3.602,-6.928 6,-10c3.021,-2.866 5.521,-6.199 7.5,-10c2.766,-3.276 5.933,-5.943 9.5,-8Z" style="fill:#52e8ef;"/><path d="M123.074,23.056c-1.411,2.039 -3.411,3.039 -6,3c0.149,1.052 -0.017,2.052 -0.5,3c-5.945,3.203 -9.445,8.203 -10.5,15c-2.398,3.072 -4.398,6.405 -6,10l-3,0c1.546,-3.921 3.213,-7.754 5,-11.5c-0.333,-0.333 -0.667,-0.666 -1,-1c3.702,-4.989 7.035,-10.155 10,-15.5c3.7,-1.745 7.7,-2.745 12,-3Z" style="fill:#c6e5e8;"/><path d="M137.074,19.056c42.668,-4.324 80.668,6.676 114,33c1.745,1.533 2.745,3.533 3,6c-23.177,-20.248 -50.177,-32.414 -81,-36.5c-10.97,-1.165 -21.97,-1.665 -33,-1.5c-1.291,0.238 -2.291,-0.096 -3,-1Z" style="fill:#121b23;"/><path d="M140.074,21.056l0,-1c11.03,-0.165 22.03,0.335 33,1.5c30.823,4.086 57.823,16.252 81,36.5c0.333,1 1,1.667 2,2c0.086,0.996 -0.248,1.829 -1,2.5c-4.243,2.371 -8.409,4.871 -12.5,7.5c-11.244,-5.689 -22.744,-10.689 -34.5,-15c-2.809,-1.517 -5.809,-3.017 -9,-4.5c-11.166,-2.8 -22.499,-3.966 -34,-3.5c-12.05,-0.292 -24.05,0.041 -36,1c0.835,-1.443 2.168,-2.443 4,-3c0.873,-1.913 1.873,-3.746 3,-5.5c-0.333,-0.333 -0.667,-0.666 -1,-1c2.378,-0.511 4.712,-1.178 7,-2c-5.333,-0.666 -5.333,-1.333 0,-2c1.134,-1.016 0.801,-1.682 -1,-2c1.449,-1.117 3.116,-1.783 5,-2c-0.333,-0.333 -0.667,-0.666 -1,-1c2.386,-0.283 3.052,-1.283 2,-3c1.123,-1.043 2.456,-1.71 4,-2c-2.667,-0.333 -5.333,-0.666 -8,-1c-1.191,-0.698 -2.191,-1.531 -3,-2.5Z" style="fill:#0fd8f8;"/><path d="M111.074,26.056c-2.965,5.345 -6.298,10.511 -10,15.5c0.333,0.334 0.667,0.667 1,1c-1.787,3.746 -3.454,7.579 -5,11.5c-6.257,2.647 -12.59,5.314 -19,8c-2.049,-0.206 -2.383,-1.039 -1,-2.5c-0.727,-1.399 -1.227,-2.899 -1.5,-4.5c-0.333,1.333 -0.667,2.667 -1,4c-0.297,-3.414 -0.964,-6.747 -2,-10c-1.101,-1.894 -2.434,-2.56 -4,-2c-2.158,-0.55 -2.658,-1.55 -1.5,-3c0.311,-0.977 0.978,-1.644 2,-2c1.196,0.346 1.196,0.846 0,1.5c5.383,1.373 9.717,-0.127 13,-4.5c3.233,-0.253 5.566,-1.753 7,-4.5l-6,0c3.842,-2.001 7.842,-3.501 12,-4.5c5.333,-1.333 10.667,-2.666 16,-4Z" style="fill:#ebeeeb;"/><path d="M140.074,21.056c0.809,0.969 1.809,1.802 3,2.5c2.667,0.334 5.333,0.667 8,1c-1.544,0.29 -2.877,0.957 -4,2c1.052,1.717 0.386,2.717 -2,3c0.333,0.334 0.667,0.667 1,1c-1.884,0.217 -3.551,0.883 -5,2c1.801,0.318 2.134,0.984 1,2c-5.333,0.667 -5.333,1.334 0,2c-2.288,0.822 -4.622,1.489 -7,2c0.333,0.334 0.667,0.667 1,1c-1.127,1.754 -2.127,3.587 -3,5.5c-1.832,0.557 -3.165,1.557 -4,3c-1.915,-0.284 -3.581,0.049 -5,1c-4.413,0.187 -8.746,0.854 -13,2c0.73,-1.545 2.063,-2.378 4,-2.5c-1.756,-0.202 -3.422,-0.702 -5,-1.5c0.346,-1.195 0.846,-1.195 1.5,0c3.309,-1.021 3.309,-2.021 0,-3c-1.162,0.687 -2.328,0.854 -3.5,0.5c4.606,-5.608 9.606,-10.942 15,-16c-1.098,-0.769 -1.098,-1.603 0,-2.5c1.667,-1.333 3.333,-2.666 5,-4c3.934,-0.859 7.934,-1.193 12,-1Z" style="fill:#14e3f7;"/><path d="M251.074,52.056c-33.332,-26.324 -71.332,-37.324 -114,-33c-14.774,1.192 -28.774,4.859 -42,11c-4.158,0.999 -8.158,2.499 -12,4.5l6,0c-1.434,2.747 -3.767,4.247 -7,4.5c-3.283,4.373 -7.617,5.873 -13,4.5c1.196,-0.654 1.196,-1.154 0,-1.5c-1.022,0.356 -1.689,1.023 -2,2c-1.467,0.792 -2.8,0.792 -4,0c1.453,-1.684 2.786,-3.351 4,-5c27.247,-24.25 59.247,-35.083 96,-32.5c36.23,2.279 65.563,17.446 88,45.5Z" style="fill:#f4f4f3;"/><path d="M128.074,22.056c-1.667,1.334 -3.333,2.667 -5,4c-3.567,2.057 -6.734,4.724 -9.5,8c-1.979,3.801 -4.479,7.134 -7.5,10c1.055,-6.797 4.555,-11.797 10.5,-15c0.483,-0.948 0.649,-1.948 0.5,-3c2.589,0.039 4.589,-0.961 6,-3c1.542,-0.8 3.208,-1.134 5,-1Z" style="fill:#9ddee8;"/><path d="M137.074,19.056c0.709,0.904 1.709,1.238 3,1l0,1c-4.066,-0.193 -8.066,0.141 -12,1c-1.792,-0.134 -3.458,0.2 -5,1c-4.3,0.255 -8.3,1.255 -12,3c-5.333,1.334 -10.667,2.667 -16,4c13.226,-6.141 27.226,-9.808 42,-11Z" style="fill:#3f5054;"/><path d="M52.074,175.056c2.319,0.492 4.319,1.492 6,3c-0.006,5.494 -0.173,11.161 -0.5,17c-0.383,0.556 -0.883,0.889 -1.5,1c-2.831,-0.579 -5.164,-1.912 -7,-4c1.757,-5.284 2.757,-10.95 3,-17Z" style="fill:#dddcd4;"/></svg>