<?xml version="1.0" encoding="UTF-8" standalone="no"?><!DOCTYPE svg PUBLIC "-//W3C//DTD SVG 1.1//EN" "http://www.w3.org/Graphics/SVG/1.1/DTD/svg11.dtd"><svg width="100%" height="100%" viewBox="0 0 2845 2845" version="1.1" xmlns="http://www.w3.org/2000/svg" xmlns:xlink="http://www.w3.org/1999/xlink" xml:space="preserve" xmlns:serif="http://www.serif.com/" style="fill-rule:evenodd;clip-rule:evenodd;stroke-linejoin:round;stroke-miterlimit:2;"><g><path d="M1186.11,302.778c-33.65,16.165 -68.833,29.128 -105.555,38.889c32.788,-18.351 67.977,-31.314 105.555,-38.889Z" style="fill:#201d4f;"/></g><g><path d="M1608.33,302.778c28.906,2.83 54.834,12.089 77.778,27.778c-27.183,-7.199 -53.111,-16.458 -77.778,-27.778Z" style="fill:#443177;"/></g><g><path d="M1269.44,286.111c-25.405,13.991 -53.183,19.547 -83.333,16.667c25.589,-13.199 53.367,-18.755 83.333,-16.667Z" style="fill:#1a163d;"/></g><g><path d="M1480.56,280.556c-68.623,-0.827 -137.139,1.025 -205.556,5.555c8.067,-4.455 17.322,-7.233 27.778,-8.333c60.228,-4.586 119.489,-3.66 177.778,2.778Z" style="fill:#1b184f;"/></g><g><path d="M1058.33,352.778c-14.072,25.224 -36.294,38.187 -66.666,38.889c18.527,-18.55 40.75,-31.513 66.666,-38.889Z" style="fill:#171530;"/></g><g><path d="M980.556,397.222c-10.795,16.504 -25.606,27.615 -44.445,33.334c12.778,-13.8 27.595,-24.912 44.445,-33.334Z" style="fill:#29255d;"/></g><g><path d="M936.111,430.556c-13.4,18.984 -30.067,33.799 -50,44.444c13.078,-18.619 29.745,-33.434 50,-44.444Z" style="fill:#161435;"/></g><g><path d="M886.111,475c-20.372,24.074 -42.594,46.296 -66.667,66.667c16.667,-27.778 38.889,-50 66.667,-66.667Z" style="fill:#261d53;"/></g><g><path d="M1886.11,680.556c5.933,5.188 13.339,7.044 22.222,5.555l0,577.778c-24.894,10.767 -50.822,18.172 -77.777,22.222c1.577,-18.205 -0.273,-35.794 -5.556,-52.778c-31.333,-5.027 -61.889,-2.25 -91.667,8.334c-4.25,-0.389 -7.027,-2.239 -8.333,-5.556c50.772,-132.722 8.178,-220.683 -127.778,-263.889c-40.094,-9 -75.283,-0.666 -105.555,25c-26.25,13.289 -44.767,33.661 -55.556,61.111c-39.105,106.15 -7.622,184.856 94.445,236.111c61.094,16.478 116.65,6.289 166.666,-30.555c10.634,17.689 14.334,38.061 11.111,61.111c35,-8.289 70.189,-15.694 105.556,-22.222c30.939,-2.178 60.572,-9.589 88.889,-22.222c7.372,36.672 11.072,73.705 11.111,111.111c-23.639,10.35 -47.711,19.611 -72.222,27.777c-87.656,20.062 -176.545,32.1 -266.667,36.112c-127.844,4.072 -255.622,3.144 -383.333,-2.778c-31.606,-0.178 -63.084,-2.034 -94.445,-5.556c6.278,-40.3 7.2,-81.039 2.778,-122.222c-5.617,-4.65 -12.1,-6.5 -19.444,-5.556c-1.723,-17.85 0.127,-34.516 5.555,-50c74.867,46.528 146.161,40.973 213.889,-16.666c30.661,-40.778 40.844,-85.222 30.556,-133.334c0.744,-9.955 -1.106,-19.211 -5.556,-27.777c-40.228,-87.273 -108.744,-127.089 -205.556,-119.445c-8.7,3.378 -16.111,8.011 -22.222,13.889c-48.889,21.122 -76.666,58.161 -83.333,111.111c-11.35,58.55 5.317,108.55 50,150c-34.878,-7.355 -70.067,-12.911 -105.556,-16.666l0,55.555c-25.527,-2.955 -49.605,-10.361 -72.222,-22.222c-3.611,-195.678 0.095,-390.122 11.111,-583.333c171.778,-98.628 356.961,-140.295 555.556,-125c153.739,10.644 298.183,52.311 433.333,125Z" style="fill:#fdfdfd;"/></g><g><path d="M736.111,625c0.478,5.533 -1.378,10.161 -5.555,13.889c-38.889,1.85 -77.778,3.705 -116.667,5.555c-24.161,8.434 -44.533,22.323 -61.111,41.667c10.116,-22.139 26.783,-37.883 50,-47.222c40.739,-1.85 81.483,-3.706 122.222,-5.556c3.022,-3.983 6.728,-6.761 11.111,-8.333Z" style="fill:#37266d;"/></g><g><path d="M2208.33,686.111c6.439,61.995 7.367,124.956 2.778,188.889c-2.128,3.089 -4.905,4.939 -8.333,5.556c5.322,-64.534 7.172,-129.35 5.555,-194.445Z" style="fill:#120735;"/></g><g><path d="M719.444,1130.56l5.556,-0c-5.106,14.383 -14.367,25.494 -27.778,33.333c5.084,-12.522 12.489,-23.633 22.222,-33.333Z" style="fill:#2c1e53;"/></g><g><path d="M2086.11,1175c6.428,47.167 7.356,95.317 2.778,144.444c-2.128,3.089 -4.906,4.939 -8.333,5.556c5.244,-49.706 7.1,-99.706 5.555,-150Z" style="fill:#230e46;"/></g><g><path d="M2019.44,1202.78c-0.922,35.233 0,70.416 2.778,105.555c2.128,3.089 4.906,4.939 8.334,5.556c-35.817,29.989 -74.706,55.911 -116.667,77.778c-0.039,-37.406 -3.739,-74.439 -11.111,-111.111c-28.317,12.633 -57.95,20.044 -88.889,22.222c72.867,-15.139 137.683,-46.622 194.444,-94.445c3.706,-1.85 7.406,-3.705 11.111,-5.555Z" style="fill:#c8c6bc;"/></g><g><path d="M869.444,1269.44c28.645,12.473 58.273,21.734 88.889,27.778c7.406,3.706 14.817,7.406 22.223,11.111c-6.878,1.723 -6.878,4.5 -0,8.334c19.455,0.966 29.638,11.15 30.555,30.555c0.928,12.961 1.85,25.928 2.778,38.889c-0.411,15.483 -4.111,29.372 -11.111,41.667c30.055,13.233 61.533,19.716 94.444,19.444c31.361,3.522 62.839,5.378 94.445,5.556c11.839,4.522 24.8,7.3 38.889,8.333c-52.85,3.739 -105.628,2.817 -158.334,-2.778c-10.183,0.928 -20.372,1.85 -30.555,2.778c6.872,1.289 12.427,4.067 16.666,8.333l-22.222,0c-30.628,-10.188 -62.111,-19.45 -94.444,-27.777c3.544,-10.889 3.544,-21.073 -0,-30.556c-31.217,-8.2 -58.995,-22.089 -83.334,-41.667c3.428,-0.616 6.206,-2.466 8.334,-5.555c1.816,-32.439 2.744,-63.922 2.777,-94.445Z" style="fill:#c2bdb4;"/></g><g><path d="M980.556,1308.33c31.316,6.145 62.8,11.7 94.444,16.667c3.706,0 5.556,-1.85 5.556,-5.556c7.344,-0.944 13.827,0.906 19.444,5.556c4.422,41.183 3.5,81.922 -2.778,122.222c-32.911,0.272 -64.389,-6.211 -94.444,-19.444c7,-12.295 10.7,-26.184 11.111,-41.667c-0.928,-12.961 -1.85,-25.928 -2.778,-38.889c-0.917,-19.405 -11.1,-29.589 -30.555,-30.555c-6.878,-3.834 -6.878,-6.611 -0,-8.334Z" style="fill:#e7e8e0;"/></g><g><path d="M1480.56,280.556c43.727,2.039 86.316,9.446 127.777,22.222c24.667,11.32 50.595,20.579 77.778,27.778c7.406,1.851 14.817,3.703 22.222,5.555c5.556,3.704 11.111,7.407 16.667,11.111c17.889,8.285 36.411,16.618 55.556,25c39.888,28.282 78.777,57.912 116.666,88.889c53.161,58.219 105.011,117.478 155.556,177.778c35.183,1.85 70.372,3.705 105.555,5.555c21.111,9.123 37.778,23.012 50,41.667c1.617,65.095 -0.233,129.911 -5.555,194.445c-11.772,10.555 -24.739,19.811 -38.889,27.777l-116.667,0c-1.828,75.056 0.022,149.134 5.556,222.223c13.383,13.344 24.494,28.161 33.333,44.444c1.545,50.294 -0.311,100.294 -5.555,150c-22.645,18.972 -46.717,35.639 -72.223,50c3.067,-10.172 3.067,-19.428 0,-27.778c7.5,-8.055 16.756,-11.761 27.778,-11.111c3.017,-14.1 8.572,-27.067 16.667,-38.889l-0,-111.111c-13.595,0.639 -24.706,6.195 -33.334,16.667c-3.705,1.85 -7.405,3.705 -11.111,5.555l-5.555,0c6.439,-188.494 7.366,-377.383 2.778,-566.666c-4.534,-7.35 -11.017,-11.05 -19.445,-11.111l-11.111,-0c1.317,-7.173 -0.533,-12.728 -5.556,-16.667c-5.555,-1.85 -9.261,-5.556 -11.111,-11.111c-1.416,-13.706 -6.972,-24.817 -16.666,-33.334c-124.65,-155.859 -287.611,-240.118 -488.889,-252.777c-204.184,-14.352 -381.961,45.834 -533.334,180.555c-29.3,20.026 -55.227,44.1 -77.777,72.222c-2.434,-0.361 -4.289,0.562 -5.556,2.778c5.089,1.545 8.789,4.322 11.111,8.334c-13.1,11.272 -26.066,22.383 -38.889,33.333c-3.705,3.705 -7.405,7.405 -11.111,11.111c-13.35,-0.594 -23.533,4.961 -30.555,16.667c-2.778,157.394 -3.706,314.805 -2.778,472.222l-0,33.333c-4.522,11.839 -7.3,24.8 -8.333,38.889c-5.428,-7.078 -10.062,-7.078 -13.889,0c-7.323,15.322 -11.028,32.911 -11.111,52.778c0.927,17.594 1.85,35.183 2.777,52.778c26.656,22.1 55.361,40.616 86.111,55.555c10.2,11.6 23.162,19.006 38.889,22.222c24.339,19.578 52.117,33.467 83.334,41.667c3.544,9.483 3.544,19.667 -0,30.556c32.333,8.327 63.816,17.589 94.444,27.777c-10.928,1.328 -21.117,-0.522 -30.555,-5.555c-12.373,17.094 -28.112,21.722 -47.223,13.889c4.178,3.728 6.034,8.355 5.556,13.889c-21.467,-4.995 -42.761,-10.55 -63.889,-16.667c-13.8,-0.017 -25.839,3.683 -36.111,11.111c-5.511,-0.955 -9.211,0.9 -11.111,5.556c-4.628,217.583 -7.406,436.1 -8.334,655.555c-3.633,6.645 -6.411,6.645 -8.333,0c3.161,-23.222 5.017,-46.372 5.556,-69.444c-3.839,-5.928 -6.617,-12.411 -8.334,-19.445c-5.889,28.178 -10.516,55.956 -13.889,83.334l0,-266.667c-15.561,7.033 -32.227,11.661 -50,13.889c-3.088,2.128 -4.938,4.905 -5.555,8.333c-5.428,15.484 -7.278,32.15 -5.556,50l0,5.556c-27.922,20.522 -44.589,48.3 -50,83.333c-16.011,8.933 -32.677,16.339 -50,22.222c-24.144,0.923 -48.216,-0.005 -72.222,-2.777c-15.85,-7.945 -32.515,-12.573 -50,-13.889c-44.715,-15.123 -85.456,-37.345 -122.222,-66.667c-10.787,-16.033 -20.046,-32.7 -27.778,-50c-1.523,-85.483 2.181,-170.667 11.111,-255.556c1.387,-12.077 6.943,-21.338 16.667,-27.777c24.43,-24.467 50.356,-46.689 77.778,-66.667c20.757,-0.228 37.424,-7.633 50,-22.222c5.931,-5.189 13.339,-7.045 22.222,-5.556c17.528,-2.722 34.194,-6.422 50,-11.111c42.5,-3.572 85.094,-5.428 127.778,-5.555c22.805,1.505 43.177,8.916 61.111,22.222c0.333,3.016 2.183,4.866 5.555,5.555c5.039,-27.65 8.739,-55.427 11.111,-83.333c15.095,-23.389 37.317,-37.278 66.667,-41.667c-66.255,-30.239 -127.367,-68.2 -183.333,-113.889c-7.228,-7.677 -11.856,-16.933 -13.889,-27.777c-3.706,-40.739 -3.706,-81.484 -0,-122.223c2.128,-3.088 4.905,-4.938 8.333,-5.555c13.411,-7.839 22.672,-18.95 27.778,-33.333l0,-222.223l-133.333,0c-12.523,-5.083 -23.634,-12.489 -33.334,-22.222c0.217,-6.978 -2.561,-12.533 -8.333,-16.667c-2.777,-55.522 -3.703,-111.077 -2.778,-166.666c-1.318,-7.172 0.534,-12.728 5.556,-16.667c16.578,-19.344 36.95,-33.233 61.111,-41.667c38.889,-1.85 77.778,-3.705 116.667,-5.555c4.177,-3.728 6.033,-8.356 5.555,-13.889c29.628,-25.928 57.406,-53.706 83.333,-83.333c24.073,-20.371 46.295,-42.593 66.667,-66.667c19.933,-10.645 36.6,-25.46 50,-44.444c18.839,-5.719 33.65,-16.83 44.445,-33.334c1.9,-4.656 5.6,-6.509 11.111,-5.555c30.372,-0.702 52.594,-13.665 66.666,-38.889c5.634,-6.521 13.039,-10.225 22.223,-11.111c36.722,-9.761 71.905,-22.724 105.555,-38.889c30.15,2.88 57.928,-2.676 83.333,-16.667l5.556,0c68.417,-4.53 136.933,-6.382 205.556,-5.555Z" style="fill:#090812;"/></g><g><path d="M1325,1313.89l155.556,-0c1.188,9.133 -0.667,17.467 -5.556,25c-48.15,11.111 -96.294,11.111 -144.444,-0c-12.678,-6.022 -14.534,-14.356 -5.556,-25Z" style="fill:#202026;"/></g><g><path d="M1063.89,1247.22l-0,5.556c3.705,3.705 7.405,7.405 11.111,11.111l-0,61.111c-31.644,-4.967 -63.128,-10.522 -94.444,-16.667c-7.406,-3.705 -14.817,-7.405 -22.223,-11.111c7.406,-14.816 7.406,-29.628 0,-44.444l0,-22.222c35.489,3.755 70.678,9.311 105.556,16.666Z" style="fill:#1b3248;"/></g><g><path d="M1075,1263.89c5.511,-0.956 9.211,0.9 11.111,5.555c-5.428,15.484 -7.278,32.15 -5.555,50c-0,3.706 -1.85,5.556 -5.556,5.556l0,-61.111Z" style="fill:#838a9a;"/></g><g><path d="M1780.56,1297.22c-13.045,0.945 -26.012,2.795 -38.889,5.556c-8.967,-1.684 -16.378,-5.389 -22.223,-11.111l0,-33.334c1.9,-4.655 5.6,-6.511 11.112,-5.555c28.661,-9.35 58.288,-13.05 88.888,-11.111l0,50c-13.35,-0.289 -26.311,1.561 -38.888,5.555Z" style="fill:#1dcef3;"/></g><g><path d="M1063.89,1252.78l-0,55.555c-31.406,-4.305 -62.889,-8.011 -94.445,-11.111c-1.777,-18.878 0.073,-37.4 5.556,-55.555c29.306,5.727 58.933,9.427 88.889,11.111Z" style="fill:#13e0f9;"/></g><g><path d="M1725,1236.11c-3.017,0.333 -4.867,2.183 -5.556,5.556c4.128,3.789 7.828,7.494 11.112,11.111c-5.512,-0.956 -9.212,0.9 -11.112,5.555c-8.883,-1.489 -16.288,0.367 -22.222,5.556c-50.016,36.844 -105.572,47.033 -166.666,30.555c-102.067,-51.255 -133.55,-129.961 -94.445,-236.111c-4.767,35.089 -5.689,70.278 -2.778,105.556c7.061,23.533 16.317,45.755 27.778,66.667c3.728,4.177 8.356,6.033 13.889,5.555l5.556,0c12.994,24.167 33.366,38.983 61.111,44.445c31.844,12.761 57.772,5.355 77.777,-22.223c4.389,-5.005 9.945,-8.711 16.667,-11.111c5.845,-0.828 11.4,0.095 16.667,2.778c3.4,7.239 5.255,13.722 5.555,19.444c23.406,-9.5 42.85,-24.316 58.334,-44.444c5.844,-27.467 12.327,-54.317 19.444,-80.556c1.417,-18.933 -4.139,-34.672 -16.667,-47.222c-9.844,-26.128 -24.661,-49.278 -44.444,-69.444c-9.9,-0.678 -19.156,2.1 -27.778,8.333c9.539,-15.644 5.839,-27.683 -11.111,-36.111c-13.039,-2.422 -26.005,-5.2 -38.889,-8.333c-35.311,2.272 -70.494,4.127 -105.555,5.555c30.272,-25.666 65.461,-34 105.555,-25c135.956,43.206 178.55,131.167 127.778,263.889Z" style="fill:#0d0d22;"/></g><g><path d="M1619.44,1258.33c-20.005,27.578 -45.933,34.984 -77.777,22.223c29.272,2.566 55.2,-4.839 77.777,-22.223Z" style="fill:#0c0944;"/></g><g><path d="M1991.67,1208.33l16.666,0c-56.761,47.823 -121.577,79.306 -194.444,94.445c-35.367,6.528 -70.556,13.933 -105.556,22.222c3.223,-23.05 -0.477,-43.422 -11.111,-61.111c5.934,-5.189 13.339,-7.045 22.222,-5.556l0,33.334c-5.188,5.933 -7.044,13.339 -5.555,22.222c23.889,-1.417 46.111,-6.972 66.667,-16.667c12.577,-3.994 25.538,-5.844 38.888,-5.555l0,-50c-30.6,-1.939 -60.227,1.761 -88.888,11.111c-3.284,-3.617 -6.984,-7.322 -11.112,-11.111c0.689,-3.373 2.539,-5.223 5.556,-5.556c1.306,3.317 4.083,5.167 8.333,5.556c29.778,-10.584 60.334,-13.361 91.667,-8.334c5.283,16.984 7.133,34.573 5.556,52.778c26.955,-4.05 52.883,-11.455 77.777,-22.222c3.706,-0 5.556,-1.85 5.556,-5.556c27.067,-10.716 51.139,-25.527 72.222,-44.444c3.706,-0 5.556,-1.85 5.556,-5.556Z" style="fill:#333941;"/></g><g><path d="M1719.44,1291.67c5.845,5.722 13.256,9.427 22.223,11.111c12.877,-2.761 25.844,-4.611 38.889,-5.556c-20.556,9.695 -42.778,15.25 -66.667,16.667c-1.489,-8.883 0.367,-16.289 5.555,-22.222Z" style="fill:#286996;"/></g><g><path d="M1480.56,1236.11c7.9,1.161 15.305,3.939 22.222,8.333c13.783,12.217 26.744,24.256 38.889,36.112c-27.745,-5.462 -48.117,-20.278 -61.111,-44.445Z" style="fill:#251875;"/></g><g><path d="M1013.89,1097.22c-0.917,18.611 0.011,37.128 2.778,55.556c9.25,12.811 18.505,25.772 27.777,38.889c3.706,-7.406 7.406,-7.406 11.112,-0c1.85,12.961 3.705,25.927 5.555,38.889c6.272,9.116 14.606,14.672 25,16.666c27.045,32.245 60.378,41.5 100,27.778c20.433,-8.033 38.95,-19.144 55.556,-33.333c10.85,2.911 20.111,8.466 27.777,16.666c25.178,-15.533 40.923,-37.755 47.223,-66.666c5.833,-23.906 10.466,-47.984 13.889,-72.223c10.288,48.112 0.105,92.556 -30.556,133.334c-67.728,57.639 -139.022,63.194 -213.889,16.666c-1.9,-4.655 -5.6,-6.511 -11.111,-5.555c-3.706,-3.706 -7.406,-7.406 -11.111,-11.111l-0,-5.556c-44.683,-41.45 -61.35,-91.45 -50,-150Z" style="fill:#121428;"/></g><g><path d="M763.889,1147.22c-0.917,16.767 0.011,33.434 2.778,50c18.394,13.35 37.839,24.461 58.333,33.334c17.683,15.333 38.05,26.444 61.111,33.333c22.617,11.861 46.695,19.267 72.222,22.222l0,-33.333c7.406,14.816 7.406,29.628 0,44.444c-30.616,-6.044 -60.244,-15.305 -88.889,-27.778c-9.338,-8.377 -20.45,-13.933 -33.333,-16.666c-34.405,-18.122 -65.889,-40.345 -94.444,-66.667c3.827,-7.078 8.461,-7.078 13.889,0c1.033,-14.089 3.811,-27.05 8.333,-38.889Z" style="fill:#2a292b;"/></g><g><path d="M741.667,1186.11c28.555,26.322 60.039,48.545 94.444,66.667c-1.35,33.611 -6.905,65.089 -16.667,94.444c-30.75,-14.939 -59.455,-33.455 -86.111,-55.555c-0.927,-17.595 -1.85,-35.184 -2.777,-52.778c0.083,-19.867 3.788,-37.456 11.111,-52.778Z" style="fill:#f9fafa;"/></g><g><path d="M2052.78,1297.22c-7.406,5.556 -14.817,11.111 -22.222,16.667c-3.428,-0.617 -6.206,-2.467 -8.334,-5.556c-2.778,-35.139 -3.7,-70.322 -2.778,-105.555c8.628,-10.472 19.739,-16.028 33.334,-16.667l-0,111.111Z" style="fill:#f0f0ee;"/></g><g><path d="M1225,1241.67c-13.1,11.272 -26.067,22.383 -38.889,33.333c-13.467,1.711 -26.428,-0.144 -38.889,-5.556c-17.261,-12.516 -35.778,-22.705 -55.555,-30.555c7.405,-3.706 14.816,-7.406 22.222,-11.111c-22.222,-11.111 -22.222,-22.222 -0,-33.334c-5.556,-1.85 -11.111,-3.705 -16.667,-5.555c25.234,-25.772 52.089,-45.217 80.556,-58.333c5.272,21.544 11.75,21.544 19.444,-0c20.389,8.605 25.945,22.494 16.667,41.666c17.378,20.706 21.083,43.856 11.111,69.445Z" style="fill:#3824a2;"/></g><g><path d="M1219.44,1058.33c9.262,18.517 18.517,37.039 27.778,55.556c13.378,29.411 13.378,59.039 0,88.889c0.922,-24.145 -0.005,-48.217 -2.778,-72.222c-8.016,-16.25 -14.494,-32.917 -19.444,-50c-7.628,-0.873 -15.039,0.055 -22.222,2.777c-8.539,9.484 -17.8,17.817 -27.778,25c11.011,-20.255 25.828,-36.922 44.444,-50Z" style="fill:#2c1972;"/></g><g><path d="M1719.44,1097.22c12.528,12.55 18.084,28.289 16.667,47.222c-7.117,26.239 -13.6,53.089 -19.444,80.556c-15.484,20.128 -34.928,34.944 -58.334,44.444c-0.3,-5.722 -2.155,-12.205 -5.555,-19.444c-5.267,-2.683 -10.822,-3.606 -16.667,-2.778c15.395,-42.783 24.656,-87.228 27.778,-133.333c18.394,-7.583 36.911,-13.139 55.555,-16.667Z" style="fill:#04012c;"/></g><g><path d="M1630.56,1058.33c10.122,19.473 21.233,37.989 33.333,55.556c-3.122,46.105 -12.383,90.55 -27.778,133.333c-6.722,2.4 -12.278,6.106 -16.667,11.111c-22.577,17.384 -48.505,24.789 -77.777,22.223c-12.145,-11.856 -25.106,-23.895 -38.889,-36.112c-6.917,-4.394 -14.322,-7.172 -22.222,-8.333l-5.556,0c-9.711,-9.222 -12.489,-20.333 -8.333,-33.333c53.561,-41.522 102.633,-87.822 147.222,-138.889c4.583,-4.922 10.139,-6.772 16.667,-5.556Z" style="fill:#38209f;"/></g><g><path d="M1325,1091.67c4.45,8.566 6.3,17.822 5.556,27.777c-3.423,24.239 -8.056,48.317 -13.889,72.223c-6.3,28.911 -22.045,51.133 -47.223,66.666c-7.666,-8.2 -16.927,-13.755 -27.777,-16.666c-16.606,14.189 -35.123,25.3 -55.556,33.333c12.822,-10.95 25.789,-22.061 38.889,-33.333c13.567,-9.006 20.972,-21.967 22.222,-38.889c13.378,-29.85 13.378,-59.478 0,-88.889c12.811,-2.739 25.772,-4.589 38.889,-5.556c14.972,-1.005 27.933,-6.561 38.889,-16.666Z" style="fill:#05022c;"/></g><g><path d="M1247.22,1202.78c-1.25,16.922 -8.655,29.883 -22.222,38.889c9.972,-25.589 6.267,-48.739 -11.111,-69.445c9.278,-19.172 3.722,-33.061 -16.667,-41.666c-7.694,21.544 -14.172,21.544 -19.444,-0c-28.467,13.116 -55.322,32.561 -80.556,58.333c5.556,1.85 11.111,3.705 16.667,5.555c-22.222,11.112 -22.222,22.223 -0,33.334c-7.406,3.705 -14.817,7.405 -22.222,11.111c19.777,7.85 38.294,18.039 55.555,30.555c12.461,5.412 25.422,7.267 38.889,5.556c-39.622,13.722 -72.955,4.467 -100,-27.778c-8.422,-9.366 -15.833,-19.55 -22.222,-30.555c2.011,-6.806 4.789,-13.284 8.333,-19.445c37.111,-26.966 71.367,-56.594 102.778,-88.889c9.978,-7.183 19.239,-15.516 27.778,-25c7.183,-2.722 14.594,-3.65 22.222,-2.777c4.95,17.083 11.428,33.75 19.444,50c2.773,24.005 3.7,48.077 2.778,72.222Z" style="fill:#341e91;"/></g><g><path d="M1286.11,1108.33c-13.117,0.967 -26.078,2.817 -38.889,5.556c-9.261,-18.517 -18.516,-37.039 -27.778,-55.556l0,-5.555c9.978,-7.184 19.239,-15.517 27.778,-25c3.706,-3.706 7.406,-3.706 11.111,-0c23.106,20.272 37.923,45.272 44.445,75c-7.172,-1.317 -12.728,0.533 -16.667,5.555Z" style="fill:#f3f1f6;"/></g><g><path d="M1719.44,1097.22c-18.644,3.528 -37.161,9.084 -55.555,16.667c-12.1,-17.567 -23.211,-36.083 -33.333,-55.556c5.555,-7.405 11.111,-14.816 16.666,-22.222c8.622,-6.233 17.878,-9.011 27.778,-8.333c19.783,20.166 34.6,43.316 44.444,69.444Z" style="fill:#efeef4;"/></g><g><path d="M1647.22,1036.11c-5.555,7.406 -11.111,14.817 -16.666,22.222c-6.528,-1.216 -12.084,0.634 -16.667,5.556c-44.589,51.067 -93.661,97.367 -147.222,138.889c-4.156,13 -1.378,24.111 8.333,33.333c-5.533,0.478 -10.161,-1.378 -13.889,-5.555c-11.461,-20.912 -20.717,-43.134 -27.778,-66.667c-2.911,-35.278 -1.989,-70.467 2.778,-105.556c10.789,-27.45 29.306,-47.822 55.556,-61.111c35.061,-1.428 70.244,-3.283 105.555,-5.555c12.884,3.133 25.85,5.911 38.889,8.333c16.95,8.428 20.65,20.467 11.111,36.111Z" style="fill:#04012a;"/></g><g><path d="M1097.22,986.111c40.472,5.295 83.067,10.85 127.778,16.667c1.85,3.705 3.706,7.405 5.556,11.111c-7.745,11.922 -11.445,24.883 -11.112,38.889l0,5.555c-18.616,13.078 -33.433,29.745 -44.444,50c-31.411,32.295 -65.667,61.923 -102.778,88.889c-3.544,6.161 -6.322,12.639 -8.333,19.445c6.389,11.005 13.8,21.189 22.222,30.555c-10.394,-1.994 -18.728,-7.55 -25,-16.666c-1.85,-12.962 -3.705,-25.928 -5.555,-38.889c-3.706,-7.406 -7.406,-7.406 -11.112,-0c-9.272,-13.117 -18.527,-26.078 -27.777,-38.889c-2.767,-18.428 -3.695,-36.945 -2.778,-55.556c6.667,-52.95 34.444,-89.989 83.333,-111.111Z" style="fill:#04012a;"/></g><g><path d="M1325,1091.67c-10.956,10.105 -23.917,15.661 -38.889,16.666c3.939,-5.022 9.495,-6.872 16.667,-5.555c-6.522,-29.728 -21.339,-54.728 -44.445,-75c-3.705,-3.706 -7.405,-3.706 -11.111,-0c-8.539,9.483 -17.8,17.816 -27.778,25c-0.333,-14.006 3.367,-26.967 11.112,-38.889c-1.85,-3.706 -3.706,-7.406 -5.556,-11.111c-44.711,-5.817 -87.306,-11.372 -127.778,-16.667c6.111,-5.878 13.522,-10.511 22.222,-13.889c96.812,-7.644 165.328,32.172 205.556,119.445Z" style="fill:#101028;"/></g><g><path d="M1986.11,1213.89c-21.083,18.917 -45.155,33.728 -72.222,44.444c-1.85,-192.627 -0,-385.222 5.555,-577.777c5.084,4.6 8.784,10.155 11.112,16.666c-5.973,16.322 -6.895,32.989 -2.778,50c14.566,-81.216 29.378,-81.216 44.444,0c2.361,40.945 3.284,80.761 2.778,119.445c-6.206,30.011 -9.911,59.639 -11.111,88.889c5.589,86.788 13,172.9 22.222,258.333Z" style="fill:#d3cec4;"/></g><g><path d="M586.111,713.889l5.556,-0l-0,116.667l127.777,-0l0,-116.667l5.556,-0l-0,150c-42.633,0.922 -85.228,-0 -127.778,-2.778c-2.778,-2.778 -5.555,-5.555 -8.333,-8.333c-2.778,-46.261 -3.7,-92.556 -2.778,-138.889Z" style="fill:#c8cac7;"/></g><g><path d="M2169.44,702.778c6.428,49.022 7.356,99.022 2.778,150c-41.183,5.45 -82.85,7.3 -125,5.555l0,-33.333c40.256,5.356 81,7.206 122.222,5.556l0,-127.778Z" style="fill:#cdcec9;"/></g><g><path d="M1975,630.556l11.111,-0c-1.844,193.538 0.011,386.133 5.556,577.777c-0,3.706 -1.85,5.556 -5.556,5.556c-9.222,-85.433 -16.633,-171.545 -22.222,-258.333c1.2,-29.25 4.905,-58.878 11.111,-88.889c0.506,-38.684 -0.417,-78.5 -2.778,-119.445c-15.066,-81.216 -29.878,-81.216 -44.444,0c-4.117,-17.011 -3.195,-33.678 2.778,-50c-2.328,-6.511 -6.028,-12.066 -11.112,-16.666c-5.555,192.555 -7.405,385.15 -5.555,577.777c-0,3.706 -1.85,5.556 -5.556,5.556l0,-577.778c-8.883,1.489 -16.289,-0.367 -22.222,-5.555c32.35,-12.017 61.983,-28.684 88.889,-50Z" style="fill:#ddd9d1;"/></g><g><path d="M2169.44,702.778l0,127.778c-41.222,1.65 -81.966,-0.2 -122.222,-5.556l0,-111.111c37.084,0.922 74.122,-0 111.111,-2.778c3.023,-3.983 6.728,-6.761 11.111,-8.333Z" style="fill:#fdfdfc;"/></g><g><rect x="591.667" y="713.889" width="127.778" height="116.667" style="fill:#fefefe;"/></g><g><path d="M725,713.889l-138.889,-0c1.322,-14.711 8.733,-24.9 22.222,-30.556c38.845,-2.777 77.734,-3.7 116.667,-2.777l0,33.333Z" style="fill:#b2afa2;"/></g><g><path d="M836.111,652.778c18.25,13.75 38.622,23.011 61.111,27.778c-11.016,193.211 -14.722,387.655 -11.111,583.333c-23.061,-6.889 -43.428,-18 -61.111,-33.333c3.778,-191.884 7.478,-384.478 11.111,-577.778Z" style="fill:#dbd5cf;"/></g><g><path d="M2169.44,702.778c-4.383,1.572 -8.088,4.35 -11.111,8.333c-36.989,2.778 -74.027,3.7 -111.111,2.778l0,-33.333c35.234,-0.923 70.417,-0 105.556,2.777c6.722,5.773 12.278,12.256 16.666,19.445Z" style="fill:#aeaca5;"/></g><g><path d="M797.222,625l0,5.556c-8.839,3.994 -17.172,9.55 -25,16.666c-0.933,156.5 -3.711,312.056 -8.333,466.667c-0.928,-157.417 -0,-314.828 2.778,-472.222c7.022,-11.706 17.205,-17.261 30.555,-16.667Z" style="fill:#d5d6d5;"/></g><g><path d="M797.222,630.556c13.717,5.938 26.678,13.344 38.889,22.222c-3.633,193.3 -7.333,385.894 -11.111,577.778c-20.494,-8.873 -39.939,-19.984 -58.333,-33.334c-2.767,-16.566 -3.695,-33.233 -2.778,-50l-0,-33.333c4.622,-154.611 7.4,-310.167 8.333,-466.667c7.828,-7.116 16.161,-12.672 25,-16.666Z" style="fill:#fcfdfc;"/></g><g><path d="M1986.11,630.556c8.428,0.061 14.911,3.761 19.445,11.111c4.588,189.283 3.661,378.172 -2.778,566.666l-11.111,0c-5.545,-191.644 -7.4,-384.239 -5.556,-577.777Z" style="fill:#f9faf8;"/></g><g><path d="M897.222,547.222c-6.583,7.537 -12.139,15.872 -16.666,25c1.305,4.85 3.161,9.484 5.555,13.889c-9.705,22.261 -14.339,44.483 -13.889,66.667c-7.783,-9.4 -17.966,-13.106 -30.555,-11.111c-16.078,-4.2 -27.189,-13.461 -33.334,-27.778c12.823,-10.95 25.789,-22.061 38.889,-33.333c15.872,-12.545 32.539,-23.656 50,-33.334Z" style="fill:#e7e8df;"/></g><g><path d="M919.444,497.222c-6.744,9.159 -14.15,18.418 -22.222,27.778c6.667,4.398 14.072,4.398 22.222,0c-6.433,8.054 -3.655,13.61 8.334,16.667c8.7,-3.115 16.105,0.589 22.222,11.111c5.756,18.072 9.461,36.589 11.111,55.555c1.85,-7.405 3.706,-14.816 5.556,-22.222c1.516,8.895 4.294,17.228 8.333,25c-7.683,8.117 -5.828,12.745 5.556,13.889c-28.073,16.722 -57.7,31.533 -88.889,44.444c-18.173,-7.177 -34.839,-16.433 -50,-27.777c12.589,-1.995 22.772,1.711 30.555,11.111c-0.45,-22.184 4.184,-44.406 13.889,-66.667c-2.394,-4.405 -4.25,-9.039 -5.555,-13.889c4.527,-9.128 10.083,-17.463 16.666,-25c5.35,-4.797 5.35,-8.501 0,-11.111c-17.255,13.623 -35.772,24.733 -55.555,33.333c22.55,-28.122 48.477,-52.196 77.777,-72.222Z" style="fill:#d3d1ca;"/></g><g><path d="M897.222,547.222c-17.461,9.678 -34.128,20.789 -50,33.334c-2.322,-4.012 -6.022,-6.789 -11.111,-8.334c1.267,-2.216 3.122,-3.139 5.556,-2.778c19.783,-8.6 38.3,-19.71 55.555,-33.333c5.35,2.61 5.35,6.314 0,11.111Z" style="fill:#4b4c51;"/></g><g><path d="M1463.89,547.222l-0,-5.555c63.894,-2.593 126.855,3.889 188.889,19.444c17.728,8.239 34.394,16.572 50,25c-78.067,-21.961 -157.695,-34.924 -238.889,-38.889Z" style="fill:#20b9db;"/></g><g><path d="M1463.89,547.222c81.194,3.965 160.822,16.928 238.889,38.889c65.311,23.95 129.2,51.728 191.666,83.333c22.728,-14.605 45.873,-28.494 69.445,-41.666c4.178,-3.728 6.033,-8.356 5.555,-13.889c5.023,3.939 6.873,9.494 5.556,16.667c-26.906,21.316 -56.539,37.983 -88.889,50c-135.15,-72.689 -279.594,-114.356 -433.333,-125c-198.595,-15.295 -383.778,26.372 -555.556,125c-22.489,-4.767 -42.861,-14.028 -61.111,-27.778c-12.211,-8.878 -25.172,-16.284 -38.889,-22.222l0,-5.556c3.706,-3.706 7.406,-7.406 11.111,-11.111c6.145,14.317 17.256,23.578 33.334,27.778c15.161,11.344 31.827,20.6 50,27.777c31.189,-12.911 60.816,-27.722 88.889,-44.444c35.611,-14.922 70.794,-29.739 105.555,-44.444l16.667,-0c20.055,-6.684 40.428,-12.239 61.111,-16.667c23.633,-6.367 47.705,-10.072 72.222,-11.111c75.828,-4.655 151.756,-6.506 227.778,-5.556Z" style="fill:#181e26;"/></g><g><path d="M1463.89,541.667l-0,5.555c-76.022,-0.95 -151.95,0.901 -227.778,5.556c7.883,-5.284 17.139,-7.136 27.778,-5.556c66.389,-5.329 133.055,-7.181 200,-5.555Z" style="fill:#043f58;"/></g><g><path d="M1230.56,425c-6.1,4.983 -6.1,9.613 -0,13.889c-29.967,28.1 -57.745,57.729 -83.334,88.889c6.511,1.963 12.989,1.038 19.445,-2.778c18.383,5.437 18.383,10.993 -0,16.667c-3.634,-6.643 -6.411,-6.643 -8.334,-0c8.767,4.432 18.023,7.21 27.778,8.333c-10.761,0.676 -18.167,5.306 -22.222,13.889c-20.683,4.428 -41.056,9.983 -61.111,16.667c8.9,-19.973 20.011,-38.494 33.333,-55.556c16.783,-15.924 30.672,-34.443 41.667,-55.556c15.366,-18.204 32.961,-33.018 52.778,-44.444Z" style="fill:#52e8ef;"/></g><g><path d="M1230.56,408.333c-7.839,11.328 -18.95,16.884 -33.334,16.667c0.828,5.844 -0.094,11.4 -2.778,16.667c-33.027,17.79 -52.472,45.567 -58.333,83.333c-13.322,17.062 -24.433,35.583 -33.333,55.556l-16.667,-0c8.589,-21.784 17.85,-43.083 27.778,-63.889c-1.85,-1.852 -3.706,-3.704 -5.556,-5.556c20.567,-27.716 39.084,-56.42 55.556,-86.111c20.555,-9.696 42.778,-15.252 66.667,-16.667Z" style="fill:#c6e5e8;"/></g><g><path d="M1308.33,386.111c237.045,-24.023 448.156,37.088 633.334,183.333c9.694,8.517 15.25,19.628 16.666,33.334c-128.761,-112.489 -278.761,-180.081 -450,-202.778c-60.944,-6.474 -122.055,-9.252 -183.333,-8.333c-7.172,1.318 -12.728,-0.534 -16.667,-5.556Z" style="fill:#121b23;"/></g><g><path d="M1325,397.222l0,-5.555c61.278,-0.919 122.389,1.859 183.333,8.333c171.239,22.697 321.239,90.289 450,202.778c1.85,5.555 5.556,9.261 11.111,11.111c0.478,5.533 -1.377,10.161 -5.555,13.889c-23.572,13.172 -46.717,27.061 -69.445,41.666c-62.466,-31.605 -126.355,-59.383 -191.666,-83.333c-15.606,-8.428 -32.272,-16.761 -50,-25c-62.034,-15.555 -124.995,-22.037 -188.889,-19.444c-66.945,-1.626 -133.611,0.226 -200,5.555c4.639,-8.018 12.044,-13.573 22.222,-16.666c4.85,-10.63 10.406,-20.815 16.667,-30.556c-1.85,-1.852 -3.706,-3.704 -5.556,-5.556c13.211,-2.84 26.178,-6.543 38.889,-11.111c-29.628,-3.704 -29.628,-7.407 0,-11.111c6.3,-5.644 4.45,-9.348 -5.555,-11.111c8.05,-6.205 17.311,-9.909 27.777,-11.111c-1.85,-1.852 -3.705,-3.704 -5.555,-5.556c13.255,-1.575 16.955,-7.13 11.111,-16.666c6.239,-5.799 13.644,-9.502 22.222,-11.111c-14.817,-1.852 -29.628,-3.704 -44.444,-5.556c-6.617,-3.877 -12.173,-8.507 -16.667,-13.889Z" style="fill:#0fd8f8;"/></g><g><path d="M1163.89,425c-16.472,29.691 -34.989,58.395 -55.556,86.111c1.85,1.852 3.706,3.704 5.556,5.556c-9.928,20.806 -19.189,42.105 -27.778,63.889c-34.761,14.705 -69.944,29.522 -105.555,44.444c-11.384,-1.144 -13.239,-5.772 -5.556,-13.889c-4.039,-7.772 -6.817,-16.105 -8.333,-25c-1.85,7.406 -3.706,14.817 -5.556,22.222c-1.65,-18.966 -5.355,-37.483 -11.111,-55.555c-6.117,-10.522 -13.522,-14.226 -22.222,-11.111c-11.989,-3.057 -14.767,-8.613 -8.334,-16.667c1.728,-5.432 5.434,-9.136 11.112,-11.111c6.644,1.92 6.644,4.698 -0,8.333c29.905,7.627 53.983,-0.706 72.222,-25c17.961,-1.406 30.922,-9.739 38.889,-25l-33.334,0c21.345,-11.12 43.567,-19.454 66.667,-25c29.628,-7.407 59.261,-14.815 88.889,-22.222Z" style="fill:#ebeeeb;"/></g><g><path d="M1325,397.222c4.494,5.382 10.05,10.012 16.667,13.889c14.816,1.852 29.627,3.704 44.444,5.556c-8.578,1.609 -15.983,5.312 -22.222,11.111c5.844,9.536 2.144,15.091 -11.111,16.666c1.85,1.852 3.705,3.704 5.555,5.556c-10.466,1.202 -19.727,4.906 -27.777,11.111c10.005,1.763 11.855,5.467 5.555,11.111c-29.628,3.704 -29.628,7.407 0,11.111c-12.711,4.568 -25.678,8.271 -38.889,11.111c1.85,1.852 3.706,3.704 5.556,5.556c-6.261,9.741 -11.817,19.926 -16.667,30.556c-10.178,3.093 -17.583,8.648 -22.222,16.666c-10.639,-1.58 -19.895,0.272 -27.778,5.556c-24.517,1.039 -48.589,4.744 -72.222,11.111c4.055,-8.583 11.461,-13.213 22.222,-13.889c-9.755,-1.123 -19.011,-3.901 -27.778,-8.333c1.923,-6.643 4.7,-6.643 8.334,-0c18.383,-5.674 18.383,-11.23 -0,-16.667c-6.456,3.816 -12.934,4.741 -19.445,2.778c25.589,-31.16 53.367,-60.789 83.334,-88.889c-6.1,-4.276 -6.1,-8.906 -0,-13.889c9.261,-7.407 18.516,-14.815 27.777,-22.222c21.856,-4.776 44.078,-6.628 66.667,-5.556Z" style="fill:#14e3f7;"/></g><g><path d="M1941.67,569.444c-185.178,-146.245 -396.289,-207.356 -633.334,-183.333c-82.077,6.622 -159.855,26.992 -233.333,61.111c-23.1,5.546 -45.322,13.88 -66.667,25l33.334,0c-7.967,15.261 -20.928,23.594 -38.889,25c-18.239,24.294 -42.317,32.627 -72.222,25c6.644,-3.635 6.644,-6.413 -0,-8.333c-5.678,1.975 -9.384,5.679 -11.112,11.111c-8.15,4.398 -15.555,4.398 -22.222,0c8.072,-9.36 15.478,-18.619 22.222,-27.778c151.373,-134.721 329.15,-194.907 533.334,-180.555c201.278,12.659 364.239,96.918 488.889,252.777Z" style="fill:#f4f4f3;"/></g><g><path d="M1258.33,402.778c-9.261,7.407 -18.516,14.815 -27.777,22.222c-19.817,11.426 -37.412,26.24 -52.778,44.444c-10.995,21.113 -24.884,39.632 -41.667,55.556c5.861,-37.766 25.306,-65.543 58.333,-83.333c2.684,-5.267 3.606,-10.823 2.778,-16.667c14.384,0.217 25.495,-5.339 33.334,-16.667c8.566,-4.448 17.822,-6.3 27.777,-5.555Z" style="fill:#9ddee8;"/></g><g><path d="M1308.33,386.111c3.939,5.022 9.495,6.874 16.667,5.556l0,5.555c-22.589,-1.072 -44.811,0.78 -66.667,5.556c-9.955,-0.745 -19.211,1.107 -27.777,5.555c-23.889,1.415 -46.112,6.971 -66.667,16.667c-29.628,7.407 -59.261,14.815 -88.889,22.222c73.478,-34.119 151.256,-54.489 233.333,-61.111Z" style="fill:#3f5054;"/></g><g><path d="M836.111,1252.78c12.883,2.733 23.995,8.289 33.333,16.666c-0.033,30.523 -0.961,62.006 -2.777,94.445c-2.128,3.089 -4.906,4.939 -8.334,5.555c-15.727,-3.216 -28.689,-10.622 -38.889,-22.222c9.762,-29.355 15.317,-60.833 16.667,-94.444Z" style="fill:#dddcd4;"/></g><g><path d="M1841.67,1419.44c1.227,6.862 4.933,12.417 11.111,16.667c-19.806,14.222 -42.028,21.628 -66.667,22.222c-4.3,-3.594 -9.855,-5.444 -16.667,-5.555c-196.411,40.444 -394.561,49.7 -594.444,27.778c-7.406,0.927 -14.817,1.85 -22.222,2.777c23.139,3.917 45.361,8.55 66.666,13.889c-55.244,-1.539 -108.95,-10.794 -161.111,-27.778c-4.239,-4.266 -9.794,-7.044 -16.666,-8.333c10.183,-0.928 20.372,-1.85 30.555,-2.778c52.706,5.595 105.484,6.517 158.334,2.778c-14.089,-1.033 -27.05,-3.811 -38.889,-8.333c127.711,5.922 255.489,6.85 383.333,2.778c90.122,-4.012 179.011,-16.05 266.667,-36.112Z" style="fill:#d4d2cb;"/></g><g><path d="M963.889,1491.67c19.328,9.011 39.694,15.494 61.111,19.444c4.178,3.728 6.033,8.356 5.556,13.889c-30.212,-2.711 -59.839,-8.267 -88.889,-16.667c-26.317,-6.305 -52.239,-13.711 -77.778,-22.222c10.272,-7.428 22.311,-11.128 36.111,-11.111c21.128,6.117 42.422,11.672 63.889,16.667Z" style="fill:#868683;"/></g><g><path d="M1786.11,1458.33c-186.567,48.25 -375.455,61.211 -566.667,38.889c-21.305,-5.339 -43.527,-9.972 -66.666,-13.889c7.405,-0.927 14.816,-1.85 22.222,-2.777c199.883,21.922 398.033,12.666 594.444,-27.778c6.812,0.111 12.367,1.961 16.667,5.555Z" style="fill:#eceeec;"/></g><g><path d="M863.889,1486.11c25.539,8.511 51.461,15.917 77.778,22.222c-4.239,4.267 -9.795,7.045 -16.667,8.334c3.378,12.133 -0.328,23.244 -11.111,33.333c3.744,9.728 5.594,18.983 5.555,27.778c-5.755,149.65 -9.461,297.8 -11.111,444.444c1.934,33.639 5.639,66.05 11.111,97.222c-21.127,10.745 -43.35,18.156 -66.666,22.223l-0,-650c1.9,-4.656 5.6,-6.511 11.111,-5.556Z" style="fill:#f4f5f0;"/></g><g><path d="M741.667,1530.56c-42.684,0.127 -85.278,1.983 -127.778,5.555c4.239,-4.267 9.794,-7.044 16.667,-8.333c38.033,-4.561 75.072,-3.634 111.111,2.778Z" style="fill:#2c2257;"/></g><g><path d="M819.444,1475c-2.372,27.906 -6.072,55.683 -11.111,83.333c-3.372,-0.689 -5.222,-2.539 -5.555,-5.555c2.911,-26.484 8.466,-52.411 16.666,-77.778Z" style="fill:#361f5f;"/></g><g><path d="M613.889,1536.11c-15.806,4.689 -32.472,8.389 -50,11.111c0.617,-3.428 2.467,-6.205 5.555,-8.333c14.7,-2.761 29.517,-3.689 44.445,-2.778Z" style="fill:#241c4e;"/></g><g><path d="M1991.67,1469.44c7.183,7.456 11.811,16.717 13.889,27.778c0.977,18.789 3.755,37.306 8.333,55.556c9.8,-9.878 20.911,-17.284 33.333,-22.222c-9.216,18.516 -24.028,27.777 -44.444,27.777c1.4,-30.489 -2.306,-60.122 -11.111,-88.889Z" style="fill:#251c4f;"/></g><g><path d="M541.667,1552.78c-12.576,14.589 -29.243,21.994 -50,22.222c13.52,-13.189 30.186,-20.6 50,-22.222Z" style="fill:#171945;"/></g><g><path d="M641.667,1586.11c-21.345,-5.772 -43.567,-5.772 -66.667,0c22.611,-11.694 46.683,-13.544 72.222,-5.555c-0.689,3.372 -2.539,5.222 -5.555,5.555Z" style="fill:#81919c;"/></g><g><path d="M675,1569.44c24.144,-0.922 48.217,0.006 72.222,2.778c8.578,1.611 15.984,5.311 22.222,11.111c-33.488,4.611 -66.822,3.689 -100,-2.777c2.017,-3.795 3.867,-7.5 5.556,-11.112Z" style="fill:#e3e4e7;"/></g><g><path d="M641.667,1586.11c-0.095,11.472 -1.945,22.583 -5.556,33.333c-21.861,-3.883 -44.083,-3.883 -66.667,0l0,-22.222c-0.955,-5.511 0.9,-9.211 5.556,-11.111c23.1,-5.772 45.322,-5.772 66.667,0Z" style="fill:#bfe1e6;"/></g><g><path d="M491.667,1575c-27.422,19.978 -53.348,42.2 -77.778,66.667c17.325,-32.134 43.251,-54.356 77.778,-66.667Z" style="fill:#2c2663;"/></g><g><path d="M558.333,1597.22c-15.131,103.134 2.461,201.284 52.778,294.445c18.933,29.122 43.933,51.344 75,66.666c4.922,4.584 6.772,10.139 5.556,16.667c-17.506,42.372 -48.989,56.261 -94.445,41.667c-70.959,-13.711 -129.292,-47.973 -175,-102.778c-3.289,-78.245 0.415,-156.022 11.111,-233.333c30.785,-40.017 69.674,-69.645 116.667,-88.889c4.249,0.389 7.028,2.239 8.333,5.555Z" style="fill:#f8f9f8;"/></g><g><path d="M2180.56,1630.56c-5.339,9.805 -7.195,20.916 -5.556,33.333l-50,-0c-37.839,-1.95 -74.878,-8.433 -111.111,-19.445c-5.978,-9.588 -6.906,-19.772 -2.778,-30.555c8.1,-6.928 16.433,-6.928 25,-0c4.372,-4.122 8.072,-8.75 11.111,-13.889c44.406,-2.778 88.85,-3.7 133.334,-2.778l-0,33.334Z" style="fill:#f4f3f5;"/></g><g><path d="M797.222,1619.44c3.611,10.75 5.461,21.862 5.556,33.334l-16.667,-0c-42.5,3.572 -85.094,5.428 -127.778,5.555l0,-55.555c39.75,-6.417 80.489,-7.345 122.223,-2.778c10.7,2.344 16.255,8.828 16.666,19.444Z" style="fill:#f9f9fa;"/></g><g><path d="M2286.11,1591.67c31.178,11.883 60.811,26.7 88.889,44.444c21.45,16.961 35.339,39.183 41.667,66.667c5.355,78.3 3.505,156.078 -5.556,233.333c-71.628,59.4 -154.033,86.25 -247.222,80.556c-12.511,-15.2 -23.622,-30.939 -33.333,-47.223c18.127,-24.666 37.572,-48.738 58.333,-72.222c49.294,-98.066 81.7,-199.922 97.222,-305.555Z" style="fill:#f9f9f9;"/></g><g><path d="M2202.78,1530.56l27.778,-0c10.75,3.611 21.861,5.461 33.333,5.555c49.628,15.089 95.922,38.239 138.889,69.445c16.239,13.422 29.205,29.166 38.889,47.222c7.822,23.255 11.527,47.328 11.111,72.222c3.2,72.483 3.2,144.706 -0,216.667c-6.522,5.633 -10.222,13.039 -11.111,22.222c-79.784,73.133 -174.228,105.544 -283.334,97.222c-15.727,-11.117 -30.539,-23.15 -44.444,-36.111c-4.411,-27.361 -17.378,-49.583 -38.889,-66.667c13.033,5.684 25.994,11.239 38.889,16.667l-0,-22.222c0.333,-3.017 2.183,-4.867 5.555,-5.556c3.734,8.05 7.439,15.456 11.112,22.222c9.711,16.284 20.822,32.023 33.333,47.223c93.189,5.694 175.594,-21.156 247.222,-80.556c9.061,-77.255 10.911,-155.033 5.556,-233.333c-6.328,-27.484 -20.217,-49.706 -41.667,-66.667c1.456,-8.211 -0.394,-15.617 -5.556,-22.222c-12.722,-6.9 -22.905,-16.156 -30.555,-27.778c-1.85,1.85 -3.706,3.706 -5.556,5.556c-9.261,-5.556 -16.666,-12.961 -22.222,-22.223c-1.711,4.489 -4.489,8.195 -8.333,11.112c-0.728,-16.062 -9.989,-19.767 -27.778,-11.112c-10.461,-2.088 -18.794,-7.644 -25,-16.666c-2.3,2.539 -5.078,4.394 -8.333,5.555c-10.8,-3.827 -21.911,-6.605 -33.334,-8.333c2.539,-2.3 4.395,-5.078 5.556,-8.333c-4.128,-3.789 -7.828,-7.495 -11.111,-11.111Z" style="fill:#090714;"/></g><g><path d="M802.778,1652.78c-0.095,-11.472 -1.945,-22.584 -5.556,-33.334c10.85,-7.805 16.406,-4.105 16.667,11.112c0.889,10.305 -2.817,17.711 -11.111,22.222Z" style="fill:#aeadb6;"/></g><g><path d="M569.444,1597.22l0,22.222c22.584,-3.883 44.806,-3.883 66.667,0c-4.255,111.839 25.378,212.767 88.889,302.778c-1.378,17.122 -10.639,25.456 -27.778,25c-46.994,-23.872 -79.405,-60.911 -97.222,-111.111c-11.939,-33.017 -22.122,-66.35 -30.556,-100c-5.772,-47.194 -5.772,-93.489 0,-138.889Z" style="fill:#16daf4;"/></g><g><path d="M658.333,1602.78l0,55.555c42.684,-0.127 85.278,-1.983 127.778,-5.555c-8.067,4.455 -17.322,7.233 -27.778,8.333c-35.139,2.778 -70.322,3.7 -105.555,2.778c-1.75,-21.506 0.1,-41.878 5.555,-61.111Z" style="fill:#c7c9d0;"/></g><g><path d="M808.333,1702.78c5.495,30.416 7.345,61.9 5.556,94.444l-0,5.556c-26.206,14.094 -50.283,31.689 -72.222,52.778c-7.184,2.722 -14.595,3.65 -22.223,2.777c-28.694,-20.261 -46.283,-48.039 -52.777,-83.333c-4.6,-22.033 -7.378,-44.256 -8.334,-66.667c50.156,1 100.156,-0.85 150,-5.555Z" style="fill:#f7f7f7;"/></g><g><path d="M2019.44,1702.78c44.212,5.016 88.656,6.866 133.334,5.555c3.316,1.306 5.166,4.084 5.555,8.334c-12.122,41.022 -26.939,80.833 -44.444,119.444c-7.406,5.556 -14.817,11.111 -22.222,16.667c-25.317,-15.922 -50.317,-32.589 -75,-50c-4.55,-34.339 -3.628,-67.672 2.777,-100Z" style="fill:#f7f7f6;"/></g><g><path d="M2441.67,1652.78c14.083,21.416 19.639,45.489 16.666,72.222l-5.555,0c0.416,-24.894 -3.289,-48.967 -11.111,-72.222Z" style="fill:#3d256b;"/></g><g><path d="M2263.89,1586.11c8.883,-1.489 16.289,0.367 22.222,5.556c-15.522,105.633 -47.928,207.489 -97.222,305.555c-20.761,23.484 -40.206,47.556 -58.333,72.222c-3.673,-6.766 -7.378,-14.172 -11.112,-22.222c-3.372,0.689 -5.222,2.539 -5.555,5.556c-11.111,-0 -16.667,-5.556 -16.667,-16.667c15.078,7.572 29.895,6.645 44.445,-2.778c26.127,-29.077 47.427,-61.483 63.889,-97.222c32.588,-76.461 52.033,-156.089 58.333,-238.889l-0,-11.111Z" style="fill:#141f22;"/></g><g><path d="M808.333,1702.78c0.334,-3.017 2.184,-4.867 5.556,-5.556c7.317,34.189 7.317,67.522 -0,100c1.789,-32.544 -0.061,-64.028 -5.556,-94.444Z" style="fill:#a29ea0;"/></g><g><path d="M2191.67,1602.78l-0,27.778c-14.461,81.333 -39.461,159.111 -75,233.333c-5.828,11.767 -14.161,21.022 -25,27.778c4.5,-12.767 9.133,-25.734 13.889,-38.889c1.85,1.85 3.705,3.705 5.555,5.555c2.722,-7.183 3.65,-14.594 2.778,-22.222c17.505,-38.611 32.322,-78.422 44.444,-119.444c-0.389,-4.25 -2.239,-7.028 -5.555,-8.334c14.394,-8.283 19.95,-21.25 16.666,-38.889c-16.027,1.7 -30.844,-0.15 -44.444,-5.555l50,-0c-1.639,-12.417 0.217,-23.528 5.556,-33.333c3.705,-9.262 7.405,-18.517 11.111,-27.778Z" style="fill:#151b2b;"/></g><g><path d="M813.889,1802.78c-10.045,22.772 -24.861,42.216 -44.445,58.333c-17.755,4.472 -34.422,3.545 -50,-2.778c7.628,0.873 15.039,-0.055 22.223,-2.777c21.939,-21.089 46.016,-38.684 72.222,-52.778Z" style="fill:#aaae9f;"/></g><g><path d="M2202.78,1591.67c20.939,-1.423 41.311,0.427 61.111,5.555c-6.3,82.8 -25.745,162.428 -58.333,238.889c-16.462,35.739 -37.762,68.145 -63.889,97.222c-14.55,9.423 -29.367,10.35 -44.445,2.778c-5.405,-13.6 -7.255,-28.417 -5.555,-44.444c10.839,-6.756 19.172,-16.011 25,-27.778c35.539,-74.222 60.539,-152 75,-233.333c5.039,-11.984 8.739,-24.945 11.111,-38.889Z" style="fill:#1ad5f5;"/></g><g><path d="M2019.44,1702.78c-6.405,32.328 -7.327,65.661 -2.777,100c24.683,17.411 49.683,34.078 75,50c-11.823,6.272 -24.784,7.2 -38.889,2.778c-13.889,-13.889 -27.778,-27.778 -41.667,-41.667c-4.617,-39.022 -3.689,-77.911 2.778,-116.667c3.372,0.689 5.222,2.539 5.555,5.556Z" style="fill:#a4a6ad;"/></g><g><path d="M2452.78,1725l5.555,0c6.156,70.189 7.084,140.556 2.778,211.111c-2.128,3.089 -4.905,4.939 -8.333,5.556c3.2,-71.961 3.2,-144.184 -0,-216.667Z" style="fill:#2c1851;"/></g><g><path d="M558.333,1597.22c-0.922,40.784 0,81.522 2.778,122.222c1.289,6.873 4.067,12.428 8.333,16.667c8.434,33.65 18.617,66.983 30.556,100c17.817,50.2 50.228,87.239 97.222,111.111c1.578,10.639 -0.272,19.895 -5.555,27.778c1.216,-6.528 -0.634,-12.083 -5.556,-16.667c-31.067,-15.322 -56.067,-37.544 -75,-66.666c-50.317,-93.161 -67.909,-191.311 -52.778,-294.445Z" style="fill:#1c1c1f;"/></g><g><path d="M819.444,1875l0,288.889c-4.622,-93.489 -7.4,-187.933 -8.333,-283.333c-9.633,10.838 -21.672,16.394 -36.111,16.666l-11.111,0c0.617,-3.428 2.467,-6.205 5.555,-8.333c17.773,-2.228 34.439,-6.856 50,-13.889Z" style="fill:#0e0528;"/></g><g><path d="M2019.44,1875c-10.633,17.689 -14.333,38.061 -11.111,61.111c1.828,75.056 -0.022,149.133 -5.555,222.222l-0,-288.889c7.172,-1.316 12.728,0.534 16.666,5.556Z" style="fill:#150827;"/></g><g><path d="M2052.78,1297.22c-8.095,11.822 -13.65,24.789 -16.667,38.889c-11.022,-0.65 -20.278,3.056 -27.778,11.111c3.067,8.35 3.067,17.606 0,27.778c-18.633,13.128 -37.155,26.089 -55.555,38.889c-16.545,8.272 -33.211,16.605 -50,25c16.566,2.767 33.233,3.694 50,2.778c13.733,7.827 26.694,17.089 38.889,27.777c8.805,28.767 12.511,58.4 11.111,88.889c20.416,0 35.228,-9.261 44.444,-27.777c52.05,-14.573 103.9,-14.573 155.556,-0c3.283,3.616 6.983,7.322 11.111,11.111c-1.161,3.255 -3.017,6.033 -5.556,8.333c11.423,1.728 22.534,4.506 33.334,8.333c3.255,-1.161 6.033,-3.016 8.333,-5.555c6.206,9.022 14.539,14.578 25,16.666c17.789,-8.655 27.05,-4.95 27.778,11.112c3.844,-2.917 6.622,-6.623 8.333,-11.112c5.556,9.262 12.961,16.667 22.222,22.223c1.85,-1.85 3.706,-3.706 5.556,-5.556c7.65,11.622 17.833,20.878 30.555,27.778c5.162,6.605 7.012,14.011 5.556,22.222c-28.078,-17.744 -57.711,-32.561 -88.889,-44.444c-5.933,-5.189 -13.339,-7.045 -22.222,-5.556c-12.961,-3.705 -25.928,-7.405 -38.889,-11.111c-7.883,-5.283 -17.139,-7.133 -27.778,-5.556c1.217,6.528 -0.633,12.084 -5.555,16.667c-3.756,-6.122 -7.456,-11.678 -11.111,-16.667c-32.328,-6.405 -65.662,-7.327 -100,-2.777c-11.767,1.444 -21.023,7 -27.778,16.666c42.55,2.778 85.144,3.7 127.778,2.778c5.838,4.011 9.544,9.567 11.111,16.667c-3.706,9.261 -7.406,18.516 -11.111,27.778l-0,-33.334c-44.484,-0.922 -88.928,0 -133.334,2.778c-3.039,5.139 -6.739,9.767 -11.111,13.889c-8.567,-6.928 -16.9,-6.928 -25,-0c-4.128,10.783 -3.2,20.967 2.778,30.555c36.233,11.012 73.272,17.495 111.111,19.445c13.6,5.405 28.417,7.255 44.444,5.555c3.284,17.639 -2.272,30.606 -16.666,38.889c-44.678,1.311 -89.122,-0.539 -133.334,-5.555c-0.333,-3.017 -2.183,-4.867 -5.555,-5.556c-6.467,38.756 -7.395,77.645 -2.778,116.667c13.889,13.889 27.778,27.778 41.667,41.667c14.105,4.422 27.066,3.494 38.889,-2.778c7.405,-5.556 14.816,-11.111 22.222,-16.667c0.872,7.628 -0.056,15.039 -2.778,22.222c-1.85,-1.85 -3.705,-3.705 -5.555,-5.555c-4.756,13.155 -9.389,26.122 -13.889,38.889c-1.7,16.027 0.15,30.844 5.555,44.444c0,11.111 5.556,16.667 16.667,16.667l-0,22.222c-12.895,-5.428 -25.856,-10.983 -38.889,-16.667c-7.167,-3.1 -11.794,-8.655 -13.889,-16.666c-2.761,-14.7 -3.689,-29.517 -2.778,-44.445c-12.016,-8.794 -24.977,-16.2 -38.889,-22.222c-3.938,-5.022 -9.494,-6.872 -16.666,-5.556l-0,288.889c-2.561,15.573 -9.972,28.539 -22.222,38.889c-30.123,10.434 -57.9,25.245 -83.334,44.445c25.795,36.889 53.572,72.072 83.334,105.555c3.522,21.517 9.077,41.884 16.666,61.111l0,16.667c0.128,42.683 1.984,85.278 5.556,127.778c-6.311,16.25 -15.567,31.066 -27.778,44.444c-15.717,6.928 -30.528,15.261 -44.444,25c-19.15,2.939 -37.673,7.567 -55.556,13.889c-22.411,0.028 -44.633,1.878 -66.667,5.556c-73.111,3.455 -145.333,-2.1 -216.666,-16.667c-8.9,-8.744 -20.011,-12.45 -33.334,-11.111c-24.111,-12.078 -41.7,-30.595 -52.777,-55.556c-4.145,-33.616 -3.217,-66.95 2.777,-100c4.267,-4.239 7.045,-9.794 8.334,-16.666c1.85,-27.778 3.705,-55.556 5.555,-83.334c11.334,-10.389 21.517,-21.5 30.556,-33.333c9.261,-12.961 20.372,-24.072 33.333,-33.333c4.383,-1.573 8.089,-4.35 11.111,-8.334c-111.033,1.75 -222.144,2.678 -333.333,2.778c-11.261,-0.9 -22.372,0.028 -33.333,2.778c17.4,17.472 34.066,35.067 50,52.778c0.794,9.789 -1.062,19.05 -5.556,27.777c3.189,8.662 6.889,16.995 11.111,25c-1.794,45.3 -7.35,88.817 -16.667,130.556c1.678,-14.217 -0.177,-27.183 -5.555,-38.889c17.717,-70.811 -2.656,-126.367 -61.111,-166.667c-99.839,73.812 -199.839,73.812 -300,0c-18.634,19.55 -36.222,39.923 -52.778,61.112c-2.778,55.522 -3.7,111.077 -2.778,166.666l0,5.556c-4.611,-47.167 -7.389,-95.317 -8.333,-144.445c-5.556,-7.405 -11.111,-7.405 -16.667,0c-2.766,-16.566 -3.694,-33.233 -2.778,-50c0,-3.705 1.85,-5.555 5.556,-5.555c24.072,-20.372 46.294,-42.595 66.667,-66.667c1.85,-5.555 5.555,-9.261 11.111,-11.111c18.516,-9.217 27.778,-24.028 27.778,-44.444l-22.223,-0c-40.227,-8.912 -69.855,-31.134 -88.889,-66.667l0,-22.222c3.373,-27.378 8,-55.156 13.889,-83.334c1.717,7.034 4.495,13.517 8.334,19.445c-0.539,23.072 -2.395,46.222 -5.556,69.444c1.922,6.645 4.7,6.645 8.333,0c0.928,-219.455 3.706,-437.972 8.334,-655.555l-0,650c4.239,4.266 9.794,7.044 16.666,8.333c-7.077,5.428 -7.077,10.061 0,13.889c5.634,6.522 13.039,10.222 22.223,11.111c104.177,33.694 211.583,54.067 322.222,61.111c102.722,11.9 206.428,13.75 311.111,5.556c53.006,-2.2 104.856,-7.756 155.556,-16.667c77.122,-7.089 153.044,-20.978 227.777,-41.667c17.406,-4.777 32.223,-13.111 44.445,-25c5.555,-3.705 11.111,-7.405 16.666,-11.111c1.845,-217.611 -0.005,-434.278 -5.555,-650c-1.85,-5.555 -5.556,-9.261 -11.111,-11.111c-21.172,-6.361 -43.395,-7.289 -66.667,-2.778c-22.222,7.406 -44.444,14.817 -66.667,22.223c-4.177,3.727 -6.033,8.355 -5.555,13.888c-3.706,-3.705 -7.406,-7.405 -11.111,-11.111c-7.172,-1.316 -12.728,0.534 -16.667,5.556c-187.339,36.905 -376.228,48.017 -566.667,33.333c-53.311,-7.416 -107.016,-16.678 -161.111,-27.778c-3.939,-5.022 -9.494,-6.872 -16.666,-5.555c-1.845,204.65 0.011,408.355 5.555,611.111c12.961,3.706 25.928,7.406 38.889,11.111l-44.444,0c-3.673,-204.244 -7.373,-407.95 -11.111,-611.111c0.477,-5.533 -1.378,-10.161 -5.556,-13.889c-21.417,-3.95 -41.783,-10.433 -61.111,-19.444c0.478,-5.534 -1.378,-10.161 -5.556,-13.889c19.111,7.833 34.85,3.205 47.223,-13.889c9.438,5.033 19.627,6.883 30.555,5.555l22.222,0c52.161,16.984 105.867,26.239 161.111,27.778c191.212,22.322 380.1,9.361 566.667,-38.889c24.639,-0.594 46.861,-8 66.667,-22.222c-6.178,-4.25 -9.884,-9.805 -11.111,-16.667c24.511,-8.166 48.583,-17.427 72.222,-27.777c41.961,-21.867 80.85,-47.789 116.667,-77.778c7.405,-5.556 14.816,-11.111 22.222,-16.667Z" style="fill:#0c0c12;"/></g><g><path d="M1913.89,2141.67c12.5,3.5 23.611,9.055 33.333,16.666c-84.233,20.739 -169.416,34.628 -255.555,41.667c72.389,-13.628 144.611,-28.439 216.666,-44.444c4.178,-3.728 6.034,-8.356 5.556,-13.889Z" style="fill:#cfd4ce;"/></g><g><path d="M1813.89,1525l-0,594.444c20.8,-1.027 41.172,-4.733 61.111,-11.111c11.2,3.767 22.311,7.467 33.333,11.111c14.378,11.806 31.045,19.212 50,22.223c1.9,4.655 5.6,6.511 11.111,5.555c-5.555,3.706 -11.111,7.406 -16.666,11.111l-5.556,0c-9.722,-7.611 -20.833,-13.166 -33.333,-16.666c-13.017,-12.495 -28.761,-18.05 -47.222,-16.667c-223.156,44.278 -448.156,56.317 -675,36.111c-51.428,-4.122 -101.428,-12.455 -150,-25l44.444,0c46.233,4.372 92.533,8.078 138.889,11.111c190.867,17.495 381.606,10.089 572.222,-22.222l5.556,0c3.705,-200 7.405,-400 11.111,-600Z" style="fill:#191e28;"/></g><g><path d="M1041.67,2136.11c48.572,12.545 98.572,20.878 150,25c226.844,20.206 451.844,8.167 675,-36.111c18.461,-1.383 34.205,4.172 47.222,16.667c0.478,5.533 -1.378,10.161 -5.556,13.889c-72.055,16.005 -144.277,30.816 -216.666,44.444c86.139,-7.039 171.322,-20.928 255.555,-41.667l5.556,0c-12.222,11.889 -27.039,20.223 -44.445,25c-74.733,20.689 -150.655,34.578 -227.777,41.667c-30.684,-0.45 -61.239,1.4 -91.667,5.556c-8.333,-1.85 -16.667,-3.706 -25,-5.556c4.867,-4.172 10.422,-6.95 16.667,-8.333c-220.573,11.922 -438.162,-7.523 -652.778,-58.334c-17.245,1.95 -16.317,4.728 2.778,8.334c47.827,12.527 95.972,23.639 144.444,33.333c-62.283,-7.522 -123.394,-15.856 -183.333,-25c-9.184,-0.889 -16.589,-4.589 -22.223,-11.111c22.162,-20.372 48.089,-35.189 77.778,-44.445c30.628,10.573 62.106,16.128 94.445,16.667Z" style="fill:#f7f7f7;"/></g><g><path d="M1030.56,1525c3.738,203.161 7.438,406.867 11.111,611.111c-32.339,-0.539 -63.817,-6.094 -94.445,-16.667c-29.689,9.256 -55.616,24.073 -77.778,44.445c-7.077,-3.828 -7.077,-8.461 0,-13.889c-6.872,-1.289 -12.427,-4.067 -16.666,-8.333c23.316,-4.067 45.539,-11.478 66.666,-22.223c9.206,-5.972 19.395,-9.677 30.556,-11.111c26.461,7.65 53.311,13.206 80.556,16.667l-0,-600Z" style="fill:#282529;"/></g><g><path d="M1802.78,1508.33c3.705,3.706 7.405,7.406 11.111,11.111l-0,5.556c-3.706,200 -7.406,400 -11.111,600l-0,-616.667Z" style="fill:#011423;"/></g><g><path d="M1791.67,1513.89c5.544,202.755 7.4,406.461 5.555,611.111c-190.616,32.311 -381.355,39.717 -572.222,22.222c112.978,0.928 225.939,0 338.889,-2.778c73.122,-14.961 147.2,-23.294 222.222,-25c5.383,-168.377 7.233,-336.9 5.556,-505.555l-0,-100Z" style="fill:#1cbbe2;"/></g><g><path d="M2019.44,1875c13.912,6.022 26.873,13.428 38.889,22.222c-17.3,-0.305 -30.266,-7.711 -38.889,-22.222Z" style="fill:#2b1c69;"/></g><g><path d="M1058.33,1519.44c54.095,11.1 107.8,20.362 161.111,27.778c-55.555,-3.705 -111.111,-7.405 -166.666,-11.111c-0.928,194.456 -0,388.9 2.778,583.333c43.788,7.823 87.305,13.378 130.555,16.667c12.961,3.706 25.928,7.406 38.889,11.111c-46.356,-3.033 -92.656,-6.739 -138.889,-11.111c-12.961,-3.705 -25.928,-7.405 -38.889,-11.111c-3.666,-203.789 0.034,-405.639 11.111,-605.556Z" style="fill:#1fc0e0;"/></g><g><path d="M1786.11,1513.89c3.939,-5.022 9.495,-6.872 16.667,-5.556l-0,616.667l-5.556,0c1.845,-204.65 -0.011,-408.356 -5.555,-611.111l-5.556,-0Z" style="fill:#0f7190;"/></g><g><path d="M1058.33,1519.44c-11.077,199.917 -14.777,401.767 -11.111,605.556c-5.544,-202.756 -7.4,-406.461 -5.555,-611.111c7.172,-1.317 12.727,0.533 16.666,5.555Z" style="fill:#004c68;"/></g><g><path d="M1952.78,1486.11c5.555,1.85 9.261,5.556 11.111,11.111c1.844,215.761 -0.006,430.578 -5.556,644.445c-18.955,-3.011 -35.622,-10.417 -50,-22.223c-2.65,-10.211 -4.5,-20.4 -5.555,-30.555c5.555,-5.556 11.111,-11.111 16.666,-16.667c-1.75,-160.866 -5.455,-324.755 -11.111,-491.666c7.573,-26.345 2.017,-49.495 -16.666,-69.445c6.872,-1.289 12.427,-4.067 16.666,-8.333c15.006,-4.161 29.823,-9.717 44.445,-16.667Z" style="fill:#f1f3ec;"/></g><g><path d="M1963.89,1497.22c5.55,215.722 7.4,432.389 5.555,650c-5.511,0.956 -9.211,-0.9 -11.111,-5.555c5.55,-213.867 7.4,-428.684 5.556,-644.445Z" style="fill:#c5c7c6;"/></g><g><path d="M1908.33,1502.78c-4.239,4.266 -9.794,7.044 -16.666,8.333c18.683,19.95 24.239,43.1 16.666,69.445c5.656,166.911 9.361,330.8 11.111,491.666c-5.555,5.556 -11.111,11.111 -16.666,16.667c1.055,10.155 2.905,20.344 5.555,30.555c-11.022,-3.644 -22.133,-7.344 -33.333,-11.111c-19.939,6.378 -40.311,10.084 -61.111,11.111l-0,-600c31.917,-3.422 63.394,-8.977 94.444,-16.666Z" style="fill:#e8e7e0;"/></g><g><path d="M1791.67,1613.89c1.677,168.655 -0.173,337.178 -5.556,505.555c-75.022,1.706 -149.1,10.039 -222.222,25c-112.95,2.778 -225.911,3.706 -338.889,2.778c-12.961,-3.705 -25.928,-7.405 -38.889,-11.111c98.111,4.878 196.261,5.806 294.445,2.778c35.733,-1.8 70.916,-6.428 105.555,-13.889c-0.889,-9.439 0.033,-18.7 2.778,-27.778c1.85,1.85 3.705,3.706 5.555,5.556c11.1,-7.384 23.139,-12.939 36.112,-16.667c24,8.278 40.666,-0.055 50,-25c-1.85,-1.85 -3.706,-3.705 -5.556,-5.555c7.406,-7.406 14.817,-14.817 22.222,-22.223c-7.016,-9.472 -8.872,-18.733 -5.555,-27.777c-12.95,-11.289 -20.356,-23.328 -22.223,-36.112c2.917,-3.844 6.623,-6.622 11.112,-8.333c-13.906,-8.605 -13.906,-17.867 -0,-27.778c-2.539,-2.3 -4.395,-5.077 -5.556,-8.333c8.456,-17.444 13.083,-35.961 13.889,-55.556c3.944,-8.183 10.422,-11.888 19.444,-11.111c0.9,-11.261 -0.027,-22.372 -2.777,-33.333c-1.85,7.406 -3.706,14.817 -5.556,22.222c-8.261,-4.183 -9.189,-8.811 -2.778,-13.889c-6.294,-17.022 -14.628,-32.761 -25,-47.222c-1.85,-16.667 -3.705,-33.333 -5.555,-50c-16.984,-9.1 -16.984,-16.505 -0,-22.222c3.8,-7.133 2.872,-13.617 -2.778,-19.445c9.878,-20.955 25.622,-34.844 47.222,-41.666c1.85,1.85 3.706,3.705 5.556,5.555c10.694,-20.383 19.955,-20.383 27.777,0c2.084,26.167 5.789,52.095 11.112,77.778c1.711,-4.489 4.488,-8.194 8.333,-11.111c1.85,12.039 3.705,24.072 5.555,36.111c1.85,66.728 4.628,134.317 8.334,202.778c6.289,-117.261 10.922,-233.928 13.889,-350Z" style="fill:#08d9fc;"/></g><g><path d="M2180.56,1569.44c3.655,4.989 7.355,10.545 11.111,16.667c4.922,-4.583 6.772,-10.139 5.555,-16.667c10.639,-1.577 19.895,0.273 27.778,5.556l-22.222,0l-0,16.667c-2.372,13.944 -6.072,26.905 -11.111,38.889l-0,-27.778c-1.567,-7.1 -5.273,-12.656 -11.111,-16.667l-0,-16.667Z" style="fill:#2f4962;"/></g><g><path d="M1786.11,1513.89l5.556,-0l-0,100c-2.967,116.072 -7.6,232.739 -13.889,350c-3.706,-68.461 -6.484,-136.05 -8.334,-202.778c-1.85,-12.039 -3.705,-24.072 -5.555,-36.111c-3.845,2.917 -6.622,6.622 -8.333,11.111c-5.323,-25.683 -9.028,-51.611 -11.112,-77.778c-7.822,-20.383 -17.083,-20.383 -27.777,0c-1.85,-1.85 -3.706,-3.705 -5.556,-5.555c-21.6,6.822 -37.344,20.711 -47.222,41.666c5.65,5.828 6.578,12.312 2.778,19.445c-16.984,5.717 -16.984,13.122 -0,22.222c1.85,16.667 3.705,33.333 5.555,50c10.372,14.461 18.706,30.2 25,47.222c-6.411,5.078 -5.483,9.706 2.778,13.889c1.85,-7.405 3.706,-14.816 5.556,-22.222c2.75,10.961 3.677,22.072 2.777,33.333c-9.022,-0.777 -15.5,2.928 -19.444,11.111c-0.806,19.595 -5.433,38.112 -13.889,55.556c1.161,3.256 3.017,6.033 5.556,8.333c-13.906,9.911 -13.906,19.173 -0,27.778c-4.489,1.711 -8.195,4.489 -11.112,8.333c1.867,12.784 9.273,24.823 22.223,36.112c-3.317,9.044 -1.461,18.305 5.555,27.777c-7.405,7.406 -14.816,14.817 -22.222,22.223c1.85,1.85 3.706,3.705 5.556,5.555c-9.334,24.945 -26,33.278 -50,25c-12.973,3.728 -25.012,9.283 -36.112,16.667c-1.85,-1.85 -3.705,-3.706 -5.555,-5.556c-2.745,9.078 -3.667,18.339 -2.778,27.778c-34.639,7.461 -69.822,12.089 -105.555,13.889c-98.184,3.028 -196.334,2.1 -294.445,-2.778c-43.25,-3.289 -86.767,-8.844 -130.555,-16.667c-2.778,-194.433 -3.706,-388.877 -2.778,-583.333c55.555,3.706 111.111,7.406 166.666,11.111c190.439,14.684 379.328,3.572 566.667,-33.333Z" style="fill:#06dcfa;"/></g><g><path d="M2225,1575c12.961,3.706 25.928,7.406 38.889,11.111l-0,11.111c-19.8,-5.128 -40.172,-6.978 -61.111,-5.555l-0,-16.667l22.222,-0Z" style="fill:#d3eef2;"/></g><g><path d="M2180.56,1569.44l-0,16.667c-42.634,0.922 -85.228,0 -127.778,-2.778c6.755,-9.666 16.011,-15.222 27.778,-16.666c34.338,-4.55 67.672,-3.628 100,2.777Z" style="fill:#dedede;"/></g><g><path d="M941.667,1508.33c29.05,8.4 58.677,13.956 88.889,16.667l-0,600c-27.245,-3.461 -54.095,-9.017 -80.556,-16.667c-11.161,1.434 -21.35,5.139 -30.556,11.111c-5.472,-31.172 -9.177,-63.583 -11.111,-97.222c1.65,-146.644 5.356,-294.794 11.111,-444.444c0.039,-8.795 -1.811,-18.05 -5.555,-27.778c10.783,-10.089 14.489,-21.2 11.111,-33.333c6.872,-1.289 12.428,-4.067 16.667,-8.334Z" style="fill:#ebe6df;"/></g><g><path d="M1952.78,1486.11c-14.622,6.95 -29.439,12.506 -44.445,16.667c-31.05,7.689 -62.527,13.244 -94.444,16.666c-0.478,-5.533 1.378,-10.161 5.555,-13.888c22.223,-7.406 44.445,-14.817 66.667,-22.223c23.272,-4.511 45.495,-3.583 66.667,2.778Z" style="fill:#697165;"/></g><g><path d="M1680.56,2225c-50.7,8.911 -102.55,14.467 -155.556,16.667c9.956,-4.495 21.067,-7.273 33.333,-8.334c-10.005,-1.761 -11.855,-5.466 -5.555,-11.111c-138.211,4.85 -276.172,0.222 -413.889,-13.889c-6.483,0.928 -12.961,1.85 -19.445,2.778c33.739,2.472 65.217,10.806 94.445,25c-110.639,-7.044 -218.045,-27.417 -322.222,-61.111c59.939,9.144 121.05,17.478 183.333,25c-48.472,-9.694 -96.617,-20.806 -144.444,-33.333c-19.095,-3.606 -20.023,-6.384 -2.778,-8.334c214.616,50.811 432.205,70.256 652.778,58.334c-6.245,1.383 -11.8,4.161 -16.667,8.333c8.333,1.85 16.667,3.706 25,5.556c30.428,-4.156 60.983,-6.006 91.667,-5.556Z" style="fill:#dfe1df;"/></g><g><path d="M1525,2241.67c-104.683,8.194 -208.389,6.344 -311.111,-5.556c-29.228,-14.194 -60.706,-22.528 -94.445,-25c6.484,-0.928 12.962,-1.85 19.445,-2.778c137.717,14.111 275.678,18.739 413.889,13.889c-6.3,5.645 -4.45,9.35 5.555,11.111c-12.266,1.061 -23.377,3.839 -33.333,8.334Z" style="fill:#ebecea;"/></g><g><path d="M908.333,2230.56l22.223,-0c-0,20.416 -9.262,35.227 -27.778,44.444c4.939,-12.422 12.344,-23.533 22.222,-33.333c-6.122,-3.756 -11.678,-7.456 -16.667,-11.111Z" style="fill:#1c1441;"/></g><g><path d="M958.333,2263.89c51.767,8.305 103.617,16.639 155.556,25c24.005,2.772 48.078,3.7 72.222,2.778c3.317,1.305 5.167,4.083 5.556,8.333c-51.011,50.222 -112.123,66.889 -183.334,50c-30.427,-7.344 -57.283,-21.233 -80.555,-41.667c-3.706,-3.705 -3.706,-7.405 -0,-11.111c11.333,-10.389 21.516,-21.5 30.555,-33.333Z" style="fill:#f8f8f8;"/></g><g><path d="M1863.89,2269.44c-10.233,-1.238 -20.417,-3.094 -30.556,-5.555c-62.227,10.217 -124.261,21.328 -186.111,33.333c-2.016,3.795 -3.866,7.5 -5.555,11.111c-8.806,-2.789 -11.584,-8.344 -8.334,-16.666c8.773,-8.561 18.961,-15.045 30.556,-19.445c58.967,-12.916 118.228,-22.178 177.778,-27.778c8.561,7.617 15.972,15.95 22.222,25Z" style="fill:#c0bfb9;"/></g><g><path d="M1863.89,2269.44c13.789,7.245 20.272,18.356 19.444,33.334c-46.372,42.6 -101.005,58.339 -163.889,47.222c-30.172,-7.178 -56.1,-21.067 -77.777,-41.667c1.689,-3.611 3.539,-7.316 5.555,-11.111c61.85,-12.005 123.884,-23.116 186.111,-33.333c10.139,2.461 20.323,4.317 30.556,5.555Z" style="fill:#f8f8f7;"/></g><g><path d="M1186.11,2291.67c-24.144,0.922 -48.217,-0.006 -72.222,-2.778c-51.939,-8.361 -103.789,-16.695 -155.556,-25c4.628,-14.606 14.817,-22.017 30.556,-22.222c54.305,11.6 108.933,21.789 163.889,30.555c12.372,5.228 23.483,11.711 33.333,19.445Z" style="fill:#c9c9c0;"/></g><g><path d="M1586.11,2291.67c-107.322,1.25 -214.728,-0.6 -322.222,-5.556c111.189,-0.1 222.3,-1.028 333.333,-2.778c-3.022,3.984 -6.728,6.761 -11.111,8.334Z" style="fill:#17114b;"/></g><g><path d="M536.111,2041.67c17.485,1.316 34.15,5.944 50,13.889c24.006,2.772 48.078,3.7 72.222,2.777c-24.894,6.378 -50.822,7.306 -77.777,2.778c-16.534,-3.917 -31.347,-10.394 -44.445,-19.444Z" style="fill:#281850;"/></g><g><path d="M1263.89,2486.11c1.75,21.506 -0.1,41.878 -5.556,61.111c-137.144,21.306 -274.183,21.306 -411.111,0c-0.922,-55.589 0,-111.144 2.778,-166.666c16.556,-21.189 34.144,-41.562 52.778,-61.112c100.161,73.812 200.161,73.812 300,0c58.455,40.3 78.828,95.856 61.111,166.667Z" style="fill:#f9faf9;"/></g><g><path d="M1952.78,2375c0.683,59.306 2.539,118.561 5.555,177.778c-3.611,-1.689 -7.316,-3.539 -11.111,-5.556c-118.028,18.189 -236.544,20.967 -355.555,8.334c-15.511,-3.012 -30.323,-7.645 -44.445,-13.889c-0.922,-53.734 0,-107.439 2.778,-161.111c15.539,-21.106 33.133,-40.55 52.778,-58.334c5.555,-3.705 11.111,-3.705 16.666,0c95.15,71.234 189.595,70.306 283.334,-2.778c20.872,15.284 37.539,33.806 50,55.556Z" style="fill:#fafafa;"/></g><g><path d="M891.667,2286.11c-20.373,24.072 -42.595,46.295 -66.667,66.667c16.667,-27.778 38.889,-50 66.667,-66.667Z" style="fill:#1d1847;"/></g><g><path d="M1552.78,2325c-9.039,11.833 -19.222,22.944 -30.556,33.333c-1.85,27.778 -3.705,55.556 -5.555,83.334c-1.289,6.872 -4.067,12.427 -8.334,16.666c-2.055,-35.694 0.723,-70.877 8.334,-105.555c9.872,-12.722 21.911,-21.984 36.111,-27.778Z" style="fill:#130d2c;"/></g><g><path d="M1980.56,2347.22c7.166,3.1 11.794,8.656 13.888,16.667c2.762,14.7 3.689,29.517 2.778,44.444c-7.589,-19.227 -13.144,-39.594 -16.666,-61.111Z" style="fill:#251349;"/></g><g><path d="M1713.89,2441.67c46.117,-4.156 90.561,2.322 133.333,19.444c12.85,3.561 22.111,10.967 27.778,22.222c-0.806,4.289 -2.656,7.995 -5.556,11.111c-70.711,35.373 -142.933,39.078 -216.666,11.112c-9.506,-6.295 -12.284,-14.628 -8.334,-25c20.712,-18.206 43.862,-31.167 69.445,-38.889Z" style="fill:#0d0d2a;"/></g><g><path d="M1297.22,2369.44c5.739,45.306 9.445,91.6 11.111,138.889c-4.455,-8.066 -7.233,-17.322 -8.333,-27.777c-2.778,-36.989 -3.7,-74.028 -2.778,-111.112Z" style="fill:#311955;"/></g><g><path d="M1747.22,2458.33c22.522,-11.072 36.411,-3.661 41.667,22.223c21.078,-16.7 38.672,-13.923 52.778,8.333c-6.239,5.8 -13.645,9.5 -22.223,11.111c-25.927,3.706 -51.85,3.706 -77.777,0c-10.656,-9.833 -13.434,-21.872 -8.334,-36.111c3.728,-4.178 8.356,-6.033 13.889,-5.556Z" style="fill:#040037;"/></g><g><path d="M1747.22,2463.89l0,-5.556c25.15,-2.75 32.561,6.511 22.222,27.778c1.85,-16.667 -5.555,-24.072 -22.222,-22.222Z" style="fill:#0d0380;"/></g><g><path d="M1747.22,2463.89c16.667,-1.85 24.072,5.555 22.222,22.222c-16.666,1.85 -24.072,-5.555 -22.222,-22.222Z" style="fill:#371add;"/></g><g><path d="M1747.22,2463.89c-1.85,16.667 5.556,24.072 22.222,22.222c-3.911,10.245 -11.316,13.022 -22.222,8.333c-7.261,-10.794 -7.261,-20.983 0,-30.555Z" style="fill:#050161;"/></g><g><path d="M1952.78,2375c5.3,44.383 9.005,89.756 11.111,136.111c-0.017,14.945 -1.867,28.833 -5.556,41.667c-3.016,-59.217 -4.872,-118.472 -5.555,-177.778Z" style="fill:#b1b2aa;"/></g><g><path d="M1280.56,2341.67c9.722,6.439 15.277,15.7 16.666,27.777c-0.922,37.084 0,74.123 2.778,111.112c1.1,10.455 3.878,19.711 8.333,27.777c8.923,50.717 -9.6,85.9 -55.555,105.556c-16.095,3.494 -30.911,9.05 -44.445,16.667c-101.883,14.811 -203.739,14.811 -305.555,-0c-42.189,-7.689 -74.595,-29.912 -97.222,-66.667c-2.434,-64.895 -0.584,-129.706 5.555,-194.445c1.545,-5.088 4.322,-8.788 8.333,-11.111c-0.916,16.767 0.012,33.434 2.778,50c5.556,-7.405 11.111,-7.405 16.667,0c0.944,49.128 3.722,97.278 8.333,144.445c6.517,11.133 15.778,19.466 27.778,25c120.683,26.166 241.056,25.239 361.111,-2.778c26.156,-5.883 37.267,-22.55 33.333,-50c9.317,-41.739 14.873,-85.256 16.667,-130.556c-4.222,-8.005 -7.922,-16.338 -11.111,-25c4.494,-8.727 6.35,-17.988 5.556,-27.777Z" style="fill:#0b0814;"/></g><g><path d="M847.222,2547.22c136.928,21.306 273.967,21.306 411.111,0c-6.561,8.706 -15.816,13.339 -27.777,13.889c4.177,3.728 6.033,8.356 5.555,13.889c-120.055,28.017 -240.428,28.944 -361.111,2.778c-12,-5.534 -21.261,-13.867 -27.778,-25l0,-5.556Z" style="fill:#ebeee1;"/></g><g><path d="M1263.89,2486.11c5.378,11.706 7.233,24.672 5.555,38.889c3.934,27.45 -7.177,44.117 -33.333,50c0.478,-5.533 -1.378,-10.161 -5.555,-13.889c11.961,-0.55 21.216,-5.183 27.777,-13.889c5.456,-19.233 7.306,-39.605 5.556,-61.111Z" style="fill:#bbb9b9;"/></g><g><path d="M1058.33,2452.78c7.106,13.9 7.106,27.789 0,41.666c-24.089,4.628 -35.2,-5.555 -33.333,-30.555c8.278,-9.889 19.389,-13.589 33.333,-11.111Z" style="fill:#07016f;"/></g><g><path d="M1058.33,2452.78c25.634,5.25 51.561,8.955 77.778,11.111c43.7,14.883 43.7,27.85 0,38.889c-44.144,-0.945 -87.661,-0.945 -130.555,-0c-17.784,-11.434 -15.006,-16.989 8.333,-16.667c-1.906,-11.017 1.8,-18.428 11.111,-22.222c-1.867,25 9.244,35.183 33.333,30.555c7.106,-13.877 7.106,-27.766 0,-41.666Z" style="fill:#05012e;"/></g><g><rect x="1036.11" y="2463.89" width="22.222" height="16.667" style="fill:#3b07f1;"/></g><g><path d="M1136.11,2463.89c-26.217,-2.156 -52.144,-5.861 -77.778,-11.111c-13.944,-2.478 -25.055,1.222 -33.333,11.111c-9.311,3.794 -13.017,11.205 -11.111,22.222c-23.339,-0.322 -26.117,5.233 -8.333,16.667c42.894,-0.945 86.411,-0.945 130.555,-0c-57.422,26.178 -116.683,28.955 -177.778,8.333c-26.805,-11.861 -28.661,-26.672 -5.555,-44.444c61.35,-31.895 122.461,-32.823 183.333,-2.778Z" style="fill:#100e25;"/></g><g><path d="M1547.22,2541.67c14.122,6.244 28.934,10.877 44.445,13.889c119.011,12.633 237.527,9.855 355.555,-8.334c3.795,2.017 7.5,3.867 11.111,5.556c0.478,5.533 -1.377,10.161 -5.555,13.889c-69.317,23.861 -140.611,34.044 -213.889,30.555c-55.917,3.334 -110.545,-3.15 -163.889,-19.444c-16.856,-6.617 -26.117,-18.656 -27.778,-36.111Z" style="fill:#e7eae1;"/></g><g><path d="M1558.33,2613.89c13.323,-1.339 24.434,2.367 33.334,11.111c-13.323,1.339 -24.434,-2.367 -33.334,-11.111Z" style="fill:#1e1b4f;"/></g></svg>